<svg xmlns="http://www.w3.org/2000/svg" viewBox="0 0 1920 1080" width="1920" height="1080">
  <defs>
    <linearGradient id="bg-hero-3" x1="0%" y1="0%" x2="60%" y2="100%">
      <stop offset="0%" stop-color="#101a4a"/>
      <stop offset="100%" stop-color="#080b22"/>
    </linearGradient>
    <radialGradient id="glow-hero-3" cx="72%" cy="18%" r="60%">
      <stop offset="0%" stop-color="#CBA36E" stop-opacity="0.16"/>
      <stop offset="100%" stop-color="#CBA36E" stop-opacity="0"/>
    </radialGradient>
  </defs>
  <rect width="1920" height="1080" fill="url(#bg-hero-3)"/>
  <rect width="1920" height="1080" fill="url(#glow-hero-3)"/>
  <g>
    <circle cx="160.4" cy="186.2" r="1.22" fill="#FFFFFF" opacity="0.26"/>
    <circle cx="1822.5" cy="911.9" r="1.29" fill="#FFFFFF" opacity="0.48"/>
    <circle cx="1587.9" cy="263.2" r="1.12" fill="#FFFFFF" opacity="0.41"/>
    <circle cx="941.6" cy="1041.1" r="0.66" fill="#FFFFFF" opacity="0.68"/>
    <circle cx="1471.4" cy="94.4" r="1.59" fill="#FFFFFF" opacity="0.46"/>
    <circle cx="1043.5" cy="326.2" r="1.07" fill="#FFFFFF" opacity="0.82"/>
    <circle cx="670.2" cy="791.7" r="1.34" fill="#FFFFFF" opacity="0.76"/>
    <circle cx="1326.6" cy="466.5" r="0.81" fill="#FFFFFF" opacity="0.42"/>
    <circle cx="717.6" cy="956.9" r="1.39" fill="#FFFFFF" opacity="0.30"/>
    <circle cx="509.0" cy="47.7" r="1.52" fill="#FFFFFF" opacity="0.19"/>
    <circle cx="750.6" cy="198.4" r="0.64" fill="#FFFFFF" opacity="0.81"/>
    <circle cx="836.9" cy="684.4" r="1.40" fill="#FFFFFF" opacity="0.52"/>
    <circle cx="1573.4" cy="832.5" r="1.13" fill="#FFFFFF" opacity="0.54"/>
    <circle cx="1703.2" cy="729.8" r="0.81" fill="#FFFFFF" opacity="0.78"/>
    <circle cx="1576.7" cy="1027.6" r="1.20" fill="#FFFFFF" opacity="0.46"/>
    <circle cx="678.5" cy="673.7" r="0.62" fill="#FFFFFF" opacity="0.66"/>
    <circle cx="1358.5" cy="949.2" r="0.66" fill="#FFFFFF" opacity="0.56"/>
    <circle cx="1057.1" cy="646.2" r="0.89" fill="#FFFFFF" opacity="0.16"/>
    <circle cx="1778.8" cy="976.5" r="0.59" fill="#FFFFFF" opacity="0.79"/>
    <circle cx="1144.2" cy="8.9" r="1.16" fill="#FFFFFF" opacity="0.36"/>
    <circle cx="716.2" cy="114.3" r="1.40" fill="#FFFFFF" opacity="0.60"/>
    <circle cx="445.4" cy="614.3" r="0.91" fill="#FFFFFF" opacity="0.84"/>
    <circle cx="401.8" cy="738.9" r="1.36" fill="#FFFFFF" opacity="0.77"/>
    <circle cx="514.4" cy="935.9" r="0.61" fill="#FFFFFF" opacity="0.26"/>
    <circle cx="1185.6" cy="973.6" r="0.89" fill="#FFFFFF" opacity="0.27"/>
    <circle cx="189.8" cy="444.9" r="1.44" fill="#FFFFFF" opacity="0.59"/>
    <circle cx="928.0" cy="567.6" r="0.65" fill="#FFFFFF" opacity="0.31"/>
    <circle cx="507.9" cy="792.2" r="1.18" fill="#FFFFFF" opacity="0.19"/>
    <circle cx="1084.6" cy="1035.6" r="0.49" fill="#FFFFFF" opacity="0.26"/>
    <circle cx="1859.9" cy="562.2" r="1.48" fill="#FFFFFF" opacity="0.73"/>
    <circle cx="901.5" cy="1069.9" r="0.71" fill="#FFFFFF" opacity="0.37"/>
    <circle cx="432.6" cy="814.8" r="0.52" fill="#FFFFFF" opacity="0.46"/>
    <circle cx="1485.8" cy="773.3" r="0.78" fill="#FFFFFF" opacity="0.26"/>
    <circle cx="1580.5" cy="913.2" r="1.17" fill="#FFFFFF" opacity="0.57"/>
    <circle cx="198.9" cy="368.1" r="0.74" fill="#FFFFFF" opacity="0.50"/>
    <circle cx="537.4" cy="659.7" r="0.96" fill="#FFFFFF" opacity="0.83"/>
    <circle cx="497.6" cy="41.3" r="0.57" fill="#FFFFFF" opacity="0.28"/>
    <circle cx="1316.7" cy="597.2" r="1.09" fill="#FFFFFF" opacity="0.67"/>
    <circle cx="1348.5" cy="211.3" r="0.62" fill="#FFFFFF" opacity="0.76"/>
    <circle cx="1397.3" cy="429.2" r="1.24" fill="#FFFFFF" opacity="0.64"/>
    <circle cx="160.3" cy="481.2" r="1.33" fill="#FFFFFF" opacity="0.73"/>
    <circle cx="1310.4" cy="358.3" r="1.44" fill="#FFFFFF" opacity="0.54"/>
    <circle cx="1912.3" cy="1032.7" r="1.48" fill="#FFFFFF" opacity="0.29"/>
    <circle cx="1819.5" cy="286.2" r="0.65" fill="#FFFFFF" opacity="0.52"/>
    <circle cx="1294.0" cy="295.1" r="1.57" fill="#FFFFFF" opacity="0.20"/>
    <circle cx="1590.1" cy="779.5" r="1.33" fill="#FFFFFF" opacity="0.47"/>
    <circle cx="1729.3" cy="346.7" r="0.98" fill="#FFFFFF" opacity="0.73"/>
    <circle cx="1668.1" cy="62.8" r="1.13" fill="#FFFFFF" opacity="0.78"/>
    <circle cx="618.4" cy="158.8" r="1.12" fill="#FFFFFF" opacity="0.73"/>
    <circle cx="413.6" cy="837.7" r="0.59" fill="#FFFFFF" opacity="0.84"/>
    <circle cx="196.2" cy="147.0" r="1.40" fill="#FFFFFF" opacity="0.43"/>
    <circle cx="135.2" cy="288.9" r="1.45" fill="#FFFFFF" opacity="0.75"/>
    <circle cx="624.9" cy="35.6" r="1.23" fill="#FFFFFF" opacity="0.24"/>
    <circle cx="1373.3" cy="554.4" r="1.48" fill="#FFFFFF" opacity="0.20"/>
    <circle cx="1715.4" cy="74.9" r="1.13" fill="#FFFFFF" opacity="0.40"/>
    <circle cx="1061.8" cy="259.3" r="1.54" fill="#FFFFFF" opacity="0.51"/>
    <circle cx="1258.6" cy="513.0" r="1.33" fill="#FFFFFF" opacity="0.76"/>
    <circle cx="161.4" cy="1040.9" r="0.73" fill="#FFFFFF" opacity="0.58"/>
    <circle cx="365.0" cy="368.6" r="1.46" fill="#FFFFFF" opacity="0.76"/>
    <circle cx="1749.0" cy="680.6" r="0.95" fill="#FFFFFF" opacity="0.47"/>
    <circle cx="681.7" cy="730.9" r="0.89" fill="#FFFFFF" opacity="0.25"/>
    <circle cx="1260.3" cy="387.8" r="1.14" fill="#FFFFFF" opacity="0.66"/>
    <circle cx="1863.7" cy="119.4" r="1.07" fill="#FFFFFF" opacity="0.77"/>
    <circle cx="70.1" cy="584.6" r="0.71" fill="#FFFFFF" opacity="0.57"/>
    <circle cx="1476.7" cy="619.7" r="0.72" fill="#FFFFFF" opacity="0.44"/>
    <circle cx="422.7" cy="911.9" r="0.87" fill="#FFFFFF" opacity="0.31"/>
    <circle cx="1764.6" cy="610.2" r="1.06" fill="#FFFFFF" opacity="0.83"/>
    <circle cx="1193.5" cy="869.4" r="0.80" fill="#FFFFFF" opacity="0.51"/>
    <circle cx="546.4" cy="820.7" r="0.72" fill="#FFFFFF" opacity="0.36"/>
    <circle cx="338.1" cy="977.1" r="0.86" fill="#FFFFFF" opacity="0.76"/>
    <circle cx="1006.3" cy="197.2" r="1.24" fill="#FFFFFF" opacity="0.74"/>
    <circle cx="864.2" cy="1029.0" r="1.20" fill="#FFFFFF" opacity="0.49"/>
    <circle cx="1584.7" cy="745.5" r="1.52" fill="#FFFFFF" opacity="0.29"/>
    <circle cx="1804.1" cy="890.9" r="0.87" fill="#FFFFFF" opacity="0.46"/>
    <circle cx="1003.8" cy="107.4" r="0.96" fill="#FFFFFF" opacity="0.83"/>
    <circle cx="1436.0" cy="722.8" r="0.58" fill="#FFFFFF" opacity="0.74"/>
    <circle cx="473.2" cy="1010.0" r="0.94" fill="#FFFFFF" opacity="0.29"/>
    <circle cx="1066.5" cy="46.7" r="1.42" fill="#FFFFFF" opacity="0.60"/>
    <circle cx="1041.2" cy="768.9" r="1.34" fill="#FFFFFF" opacity="0.15"/>
    <circle cx="1035.0" cy="880.9" r="1.42" fill="#FFFFFF" opacity="0.52"/>
    <circle cx="1878.9" cy="421.9" r="1.28" fill="#FFFFFF" opacity="0.71"/>
    <circle cx="758.3" cy="1022.2" r="1.38" fill="#FFFFFF" opacity="0.78"/>
    <circle cx="1325.0" cy="72.3" r="1.54" fill="#FFFFFF" opacity="0.69"/>
    <circle cx="1431.1" cy="454.5" r="0.48" fill="#FFFFFF" opacity="0.78"/>
    <circle cx="1819.0" cy="480.9" r="0.96" fill="#FFFFFF" opacity="0.53"/>
    <circle cx="218.9" cy="61.5" r="1.27" fill="#FFFFFF" opacity="0.35"/>
    <circle cx="66.0" cy="722.7" r="0.59" fill="#FFFFFF" opacity="0.81"/>
    <circle cx="1843.2" cy="127.1" r="1.13" fill="#FFFFFF" opacity="0.69"/>
    <circle cx="1690.8" cy="301.6" r="1.15" fill="#FFFFFF" opacity="0.60"/>
    <circle cx="47.6" cy="424.3" r="0.42" fill="#FFFFFF" opacity="0.82"/>
    <circle cx="757.1" cy="48.6" r="0.46" fill="#FFFFFF" opacity="0.34"/>
    <circle cx="233.4" cy="630.8" r="0.92" fill="#FFFFFF" opacity="0.26"/>
    <circle cx="133.2" cy="216.9" r="1.22" fill="#FFFFFF" opacity="0.16"/>
    <circle cx="747.5" cy="300.2" r="0.48" fill="#FFFFFF" opacity="0.37"/>
    <circle cx="1404.5" cy="420.1" r="1.58" fill="#FFFFFF" opacity="0.25"/>
    <circle cx="1846.7" cy="252.4" r="0.46" fill="#FFFFFF" opacity="0.35"/>
    <circle cx="915.0" cy="270.7" r="0.51" fill="#FFFFFF" opacity="0.65"/>
    <circle cx="914.4" cy="849.2" r="1.11" fill="#FFFFFF" opacity="0.19"/>
    <circle cx="147.4" cy="378.6" r="1.31" fill="#FFFFFF" opacity="0.39"/>
    <circle cx="1681.5" cy="966.7" r="1.05" fill="#FFFFFF" opacity="0.61"/>
    <circle cx="605.2" cy="1072.5" r="1.50" fill="#FFFFFF" opacity="0.83"/>
    <circle cx="1276.2" cy="472.6" r="0.50" fill="#FFFFFF" opacity="0.35"/>
    <circle cx="1245.5" cy="908.9" r="1.56" fill="#FFFFFF" opacity="0.33"/>
    <circle cx="1077.6" cy="628.3" r="0.68" fill="#FFFFFF" opacity="0.45"/>
    <circle cx="708.2" cy="721.1" r="1.20" fill="#FFFFFF" opacity="0.36"/>
    <circle cx="1702.3" cy="340.0" r="0.77" fill="#FFFFFF" opacity="0.74"/>
    <circle cx="382.2" cy="58.0" r="0.44" fill="#FFFFFF" opacity="0.58"/>
    <circle cx="1313.1" cy="372.0" r="1.57" fill="#FFFFFF" opacity="0.32"/>
    <circle cx="1527.2" cy="235.2" r="1.23" fill="#FFFFFF" opacity="0.37"/>
    <circle cx="1069.8" cy="875.9" r="1.25" fill="#FFFFFF" opacity="0.63"/>
    <circle cx="1214.0" cy="414.6" r="1.53" fill="#FFFFFF" opacity="0.70"/>
    <circle cx="454.2" cy="468.8" r="1.08" fill="#FFFFFF" opacity="0.59"/>
    <circle cx="644.9" cy="244.6" r="1.01" fill="#FFFFFF" opacity="0.34"/>
    <circle cx="258.3" cy="534.1" r="0.52" fill="#FFFFFF" opacity="0.58"/>
    <circle cx="562.5" cy="296.5" r="1.18" fill="#FFFFFF" opacity="0.18"/>
    <circle cx="1908.7" cy="684.6" r="1.09" fill="#FFFFFF" opacity="0.77"/>
    <circle cx="1617.1" cy="512.1" r="1.39" fill="#FFFFFF" opacity="0.17"/>
    <circle cx="1627.7" cy="1052.3" r="0.91" fill="#FFFFFF" opacity="0.53"/>
    <circle cx="1142.7" cy="587.7" r="0.56" fill="#FFFFFF" opacity="0.63"/>
    <circle cx="1040.8" cy="200.8" r="1.28" fill="#FFFFFF" opacity="0.75"/>
    <circle cx="852.7" cy="77.0" r="0.91" fill="#FFFFFF" opacity="0.46"/>
    <circle cx="1403.7" cy="336.6" r="0.62" fill="#FFFFFF" opacity="0.23"/>
    <circle cx="1094.4" cy="225.0" r="0.84" fill="#FFFFFF" opacity="0.55"/>
    <circle cx="1052.4" cy="171.3" r="0.93" fill="#FFFFFF" opacity="0.41"/>
    <circle cx="1216.5" cy="692.2" r="1.33" fill="#FFFFFF" opacity="0.74"/>
    <circle cx="244.6" cy="109.7" r="1.40" fill="#FFFFFF" opacity="0.42"/>
    <circle cx="329.0" cy="690.1" r="0.89" fill="#FFFFFF" opacity="0.77"/>
    <circle cx="1545.4" cy="73.6" r="0.42" fill="#FFFFFF" opacity="0.56"/>
    <circle cx="1614.4" cy="983.1" r="1.18" fill="#FFFFFF" opacity="0.17"/>
    <circle cx="1180.9" cy="53.7" r="0.68" fill="#FFFFFF" opacity="0.62"/>
    <circle cx="871.5" cy="600.1" r="0.92" fill="#FFFFFF" opacity="0.24"/>
    <circle cx="1388.1" cy="636.5" r="1.21" fill="#FFFFFF" opacity="0.22"/>
    <circle cx="503.5" cy="18.1" r="0.45" fill="#FFFFFF" opacity="0.53"/>
    <circle cx="1608.3" cy="311.6" r="1.13" fill="#FFFFFF" opacity="0.66"/>
    <circle cx="1883.6" cy="976.9" r="1.12" fill="#FFFFFF" opacity="0.39"/>
    <circle cx="1454.0" cy="369.7" r="0.76" fill="#FFFFFF" opacity="0.83"/>
    <circle cx="979.2" cy="221.3" r="1.30" fill="#FFFFFF" opacity="0.48"/>
    <circle cx="207.9" cy="751.5" r="0.89" fill="#FFFFFF" opacity="0.26"/>
    <circle cx="423.8" cy="430.3" r="1.36" fill="#FFFFFF" opacity="0.41"/>
    <circle cx="628.2" cy="1007.6" r="1.58" fill="#FFFFFF" opacity="0.23"/>
    <circle cx="1787.7" cy="559.9" r="0.51" fill="#FFFFFF" opacity="0.74"/>
    <circle cx="1194.7" cy="505.7" r="0.52" fill="#FFFFFF" opacity="0.72"/>
    <circle cx="254.6" cy="560.1" r="0.80" fill="#FFFFFF" opacity="0.77"/>
    <circle cx="1889.4" cy="811.4" r="0.45" fill="#FFFFFF" opacity="0.77"/>
    <circle cx="128.7" cy="961.7" r="1.16" fill="#FFFFFF" opacity="0.68"/>
    <circle cx="14.5" cy="251.9" r="1.12" fill="#FFFFFF" opacity="0.36"/>
    <circle cx="1457.3" cy="472.3" r="0.74" fill="#FFFFFF" opacity="0.44"/>
    <circle cx="1808.4" cy="396.4" r="0.47" fill="#FFFFFF" opacity="0.57"/>
    <circle cx="1315.0" cy="238.6" r="1.19" fill="#FFFFFF" opacity="0.51"/>
    <circle cx="1499.3" cy="718.8" r="0.52" fill="#FFFFFF" opacity="0.27"/>
    <circle cx="997.8" cy="652.0" r="1.20" fill="#FFFFFF" opacity="0.81"/>
    <circle cx="1310.7" cy="850.0" r="0.56" fill="#FFFFFF" opacity="0.76"/>
    <circle cx="79.1" cy="358.5" r="1.55" fill="#FFFFFF" opacity="0.70"/>
    <circle cx="1841.9" cy="341.8" r="0.65" fill="#FFFFFF" opacity="0.81"/>
    <circle cx="1548.6" cy="589.7" r="1.43" fill="#FFFFFF" opacity="0.75"/>
    <circle cx="3.3" cy="1047.4" r="0.50" fill="#FFFFFF" opacity="0.56"/>
    <circle cx="1738.6" cy="165.6" r="0.80" fill="#FFFFFF" opacity="0.73"/>
    <circle cx="990.1" cy="597.0" r="1.13" fill="#FFFFFF" opacity="0.61"/>
    <circle cx="5.5" cy="881.8" r="0.61" fill="#FFFFFF" opacity="0.73"/>
    <circle cx="19.6" cy="191.8" r="0.45" fill="#FFFFFF" opacity="0.38"/>
    <circle cx="971.9" cy="423.3" r="0.95" fill="#FFFFFF" opacity="0.82"/>
    <circle cx="960.5" cy="221.7" r="0.86" fill="#FFFFFF" opacity="0.18"/>
    <circle cx="1624.6" cy="444.2" r="1.36" fill="#FFFFFF" opacity="0.38"/>
    <circle cx="1718.1" cy="841.9" r="0.52" fill="#FFFFFF" opacity="0.42"/>
    <circle cx="1795.8" cy="213.0" r="1.11" fill="#FFFFFF" opacity="0.74"/>
    <circle cx="1605.6" cy="78.4" r="1.04" fill="#FFFFFF" opacity="0.60"/>
    <circle cx="804.5" cy="319.1" r="1.47" fill="#FFFFFF" opacity="0.21"/>
    <circle cx="1778.9" cy="673.4" r="1.02" fill="#FFFFFF" opacity="0.26"/>
    <circle cx="1267.7" cy="969.7" r="0.45" fill="#FFFFFF" opacity="0.16"/>
    <circle cx="32.5" cy="758.3" r="0.66" fill="#FFFFFF" opacity="0.38"/>
    <circle cx="1650.4" cy="272.7" r="0.88" fill="#FFFFFF" opacity="0.54"/>
    <circle cx="1118.8" cy="879.9" r="1.31" fill="#FFFFFF" opacity="0.64"/>
    <circle cx="1175.9" cy="971.2" r="0.89" fill="#FFFFFF" opacity="0.44"/>
    <circle cx="893.3" cy="859.9" r="0.83" fill="#FFFFFF" opacity="0.71"/>
    <circle cx="764.1" cy="966.8" r="0.45" fill="#FFFFFF" opacity="0.50"/>
    <circle cx="1167.6" cy="484.1" r="1.18" fill="#FFFFFF" opacity="0.79"/>
    <circle cx="1678.1" cy="258.7" r="1.54" fill="#FFFFFF" opacity="0.56"/>
    <circle cx="1799.3" cy="1039.2" r="1.41" fill="#FFFFFF" opacity="0.80"/>
    <circle cx="624.8" cy="694.5" r="1.46" fill="#FFFFFF" opacity="0.61"/>
    <circle cx="1636.1" cy="816.9" r="1.35" fill="#FFFFFF" opacity="0.67"/>
    <circle cx="1052.9" cy="553.9" r="1.15" fill="#FFFFFF" opacity="0.25"/>
    <circle cx="436.8" cy="265.6" r="1.48" fill="#FFFFFF" opacity="0.81"/>
    <circle cx="296.9" cy="768.9" r="0.92" fill="#FFFFFF" opacity="0.69"/>
    <circle cx="1191.4" cy="343.4" r="1.59" fill="#FFFFFF" opacity="0.22"/>
    <circle cx="1033.9" cy="33.7" r="1.24" fill="#FFFFFF" opacity="0.19"/>
    <circle cx="995.3" cy="913.6" r="1.15" fill="#FFFFFF" opacity="0.22"/>
    <circle cx="1263.9" cy="360.8" r="1.08" fill="#FFFFFF" opacity="0.52"/>
    <circle cx="834.1" cy="93.6" r="1.19" fill="#FFFFFF" opacity="0.59"/>
    <circle cx="583.7" cy="356.2" r="1.47" fill="#FFFFFF" opacity="0.65"/>
    <circle cx="1269.2" cy="146.7" r="1.31" fill="#FFFFFF" opacity="0.52"/>
    <circle cx="1023.7" cy="918.8" r="1.23" fill="#FFFFFF" opacity="0.56"/>
    <circle cx="899.1" cy="1034.1" r="0.91" fill="#FFFFFF" opacity="0.51"/>
    <circle cx="779.7" cy="717.4" r="1.51" fill="#FFFFFF" opacity="0.25"/>
    <circle cx="793.3" cy="1000.3" r="0.58" fill="#FFFFFF" opacity="0.30"/>
    <circle cx="716.4" cy="267.2" r="0.82" fill="#FFFFFF" opacity="0.36"/>
    <circle cx="1155.8" cy="678.6" r="1.42" fill="#FFFFFF" opacity="0.82"/>
    <circle cx="810.4" cy="846.7" r="0.75" fill="#FFFFFF" opacity="0.35"/>
    <circle cx="1583.3" cy="1009.3" r="0.79" fill="#FFFFFF" opacity="0.83"/>
    <circle cx="76.9" cy="525.5" r="0.48" fill="#FFFFFF" opacity="0.42"/>
    <circle cx="1431.4" cy="717.2" r="1.25" fill="#FFFFFF" opacity="0.61"/>
    <circle cx="1369.4" cy="605.3" r="0.84" fill="#FFFFFF" opacity="0.30"/>
    <circle cx="1869.9" cy="767.2" r="0.92" fill="#FFFFFF" opacity="0.61"/>
    <circle cx="378.9" cy="1025.8" r="1.37" fill="#FFFFFF" opacity="0.61"/>
    <circle cx="1348.5" cy="891.7" r="1.56" fill="#FFFFFF" opacity="0.16"/>
    <circle cx="1459.3" cy="710.9" r="1.56" fill="#FFFFFF" opacity="0.52"/>
    <circle cx="681.3" cy="437.8" r="0.83" fill="#FFFFFF" opacity="0.29"/>
    <circle cx="394.3" cy="899.9" r="1.29" fill="#FFFFFF" opacity="0.44"/>
    <circle cx="1413.3" cy="257.5" r="1.00" fill="#FFFFFF" opacity="0.68"/>
    <circle cx="1145.5" cy="284.3" r="1.11" fill="#FFFFFF" opacity="0.19"/>
    <circle cx="800.7" cy="541.3" r="1.55" fill="#FFFFFF" opacity="0.48"/>
    <circle cx="1824.8" cy="125.9" r="0.72" fill="#FFFFFF" opacity="0.46"/>
    <circle cx="1671.4" cy="488.2" r="1.01" fill="#FFFFFF" opacity="0.22"/>
    <circle cx="1448.8" cy="154.7" r="1.42" fill="#FFFFFF" opacity="0.71"/>
    <circle cx="1259.6" cy="328.3" r="1.58" fill="#FFFFFF" opacity="0.79"/>
    <circle cx="575.1" cy="702.5" r="0.52" fill="#FFFFFF" opacity="0.64"/>
    <circle cx="386.1" cy="214.1" r="1.21" fill="#FFFFFF" opacity="0.25"/>
    <circle cx="1477.2" cy="335.7" r="0.74" fill="#FFFFFF" opacity="0.36"/>
    <circle cx="973.7" cy="624.8" r="1.06" fill="#FFFFFF" opacity="0.73"/>
    <circle cx="1827.4" cy="931.0" r="1.09" fill="#FFFFFF" opacity="0.44"/>
    <circle cx="1874.5" cy="257.5" r="1.09" fill="#FFFFFF" opacity="0.23"/>
    <circle cx="327.2" cy="656.6" r="1.26" fill="#FFFFFF" opacity="0.32"/>
    <circle cx="1352.3" cy="744.7" r="0.44" fill="#FFFFFF" opacity="0.81"/>
    <circle cx="150.6" cy="865.4" r="0.84" fill="#FFFFFF" opacity="0.53"/>
    <circle cx="844.6" cy="351.5" r="0.49" fill="#FFFFFF" opacity="0.27"/>
    <circle cx="1802.9" cy="1022.8" r="0.88" fill="#FFFFFF" opacity="0.21"/>
    <circle cx="1650.6" cy="357.4" r="0.88" fill="#FFFFFF" opacity="0.43"/>
    <circle cx="1204.6" cy="288.2" r="1.00" fill="#FFFFFF" opacity="0.19"/>
    <circle cx="649.6" cy="780.8" r="1.26" fill="#FFFFFF" opacity="0.26"/>
    <circle cx="1310.8" cy="616.4" r="1.36" fill="#FFFFFF" opacity="0.29"/>
    <circle cx="840.8" cy="214.3" r="0.82" fill="#FFFFFF" opacity="0.55"/>
    <circle cx="324.0" cy="545.1" r="0.76" fill="#FFFFFF" opacity="0.43"/>
    <circle cx="1771.0" cy="1066.2" r="0.89" fill="#FFFFFF" opacity="0.82"/>
    <circle cx="1234.4" cy="64.0" r="1.38" fill="#FFFFFF" opacity="0.61"/>
    <circle cx="1373.8" cy="1042.9" r="1.07" fill="#FFFFFF" opacity="0.54"/>
    <circle cx="1253.6" cy="813.2" r="0.82" fill="#FFFFFF" opacity="0.59"/>
    <circle cx="740.6" cy="567.9" r="1.03" fill="#FFFFFF" opacity="0.19"/>
    <circle cx="192.5" cy="410.4" r="0.87" fill="#FFFFFF" opacity="0.29"/>
    <circle cx="777.1" cy="978.7" r="0.64" fill="#FFFFFF" opacity="0.53"/>
    <circle cx="1526.1" cy="396.1" r="1.53" fill="#FFFFFF" opacity="0.46"/>
    <circle cx="1664.3" cy="465.6" r="1.06" fill="#FFFFFF" opacity="0.73"/>
    <circle cx="1186.0" cy="705.9" r="1.09" fill="#FFFFFF" opacity="0.50"/>
    <circle cx="1868.6" cy="564.3" r="1.06" fill="#FFFFFF" opacity="0.37"/>
    <circle cx="1003.4" cy="129.9" r="0.88" fill="#FFFFFF" opacity="0.32"/>
    <circle cx="1846.4" cy="1057.1" r="1.18" fill="#FFFFFF" opacity="0.84"/>
    <circle cx="90.9" cy="431.0" r="0.99" fill="#FFFFFF" opacity="0.78"/>
    <circle cx="1215.0" cy="473.0" r="1.33" fill="#FFFFFF" opacity="0.25"/>
    <circle cx="493.4" cy="846.3" r="0.47" fill="#FFFFFF" opacity="0.41"/>
    <circle cx="249.1" cy="51.0" r="0.80" fill="#FFFFFF" opacity="0.45"/>
    <circle cx="1213.1" cy="916.3" r="1.42" fill="#FFFFFF" opacity="0.40"/>
    <circle cx="117.5" cy="513.7" r="0.98" fill="#FFFFFF" opacity="0.51"/>
    <circle cx="1749.4" cy="757.1" r="1.14" fill="#FFFFFF" opacity="0.25"/>
    <circle cx="54.1" cy="54.9" r="0.90" fill="#FFFFFF" opacity="0.70"/>
    <circle cx="1060.3" cy="328.7" r="0.55" fill="#FFFFFF" opacity="0.66"/>
    <circle cx="150.4" cy="72.3" r="1.06" fill="#FFFFFF" opacity="0.28"/>
    <circle cx="1248.2" cy="527.3" r="1.18" fill="#FFFFFF" opacity="0.20"/>
    <circle cx="708.0" cy="4.9" r="0.75" fill="#FFFFFF" opacity="0.53"/>
    <circle cx="454.2" cy="256.8" r="1.04" fill="#FFFFFF" opacity="0.47"/>
    <circle cx="544.8" cy="164.8" r="1.58" fill="#FFFFFF" opacity="0.83"/>
    <circle cx="1419.8" cy="48.1" r="1.41" fill="#FFFFFF" opacity="0.63"/>
    <circle cx="1132.8" cy="282.4" r="0.62" fill="#FFFFFF" opacity="0.68"/>
  </g>
  <g>
    <path d="M -80 854.2 C 871.8 97.0, 1724.2 -89.6, 2000 84.1" stroke="#CBA36E" stroke-width="1.01" fill="none" opacity="0.15" stroke-linecap="round"/>
    <path d="M -80 -94.8 C 702.3 -61.0, 1301.7 368.5, 2000 267.6" stroke="#EFEAFB" stroke-width="1.17" fill="none" opacity="0.26" stroke-linecap="round"/>
    <path d="M -80 224.5 C 696.7 180.9, 1547.2 266.3, 2000 647.7" stroke="#EFEAFB" stroke-width="1.58" fill="none" opacity="0.16" stroke-linecap="round"/>
    <path d="M -80 186.2 C 815.2 528.8, 1445.3 -69.9, 2000 623.8" stroke="#EFEAFB" stroke-width="0.74" fill="none" opacity="0.27" stroke-linecap="round"/>
    <path d="M -80 773.7 C 716.6 1089.0, 1302.2 214.3, 2000 579.8" stroke="#EFEAFB" stroke-width="0.88" fill="none" opacity="0.21" stroke-linecap="round"/>
    <path d="M -80 466.7 C 739.1 970.3, 1577.3 445.9, 2000 -38.7" stroke="#CBA36E" stroke-width="0.86" fill="none" opacity="0.15" stroke-linecap="round"/>
    <path d="M -80 370.9 C 614.6 462.3, 1591.9 164.7, 2000 179.9" stroke="#EFEAFB" stroke-width="1.04" fill="none" opacity="0.17" stroke-linecap="round"/>
    <path d="M -80 750.9 C 920.5 1068.3, 1134.5 520.9, 2000 880.2" stroke="#EFEAFB" stroke-width="1.35" fill="none" opacity="0.31" stroke-linecap="round"/>
    <path d="M -80 310.5 C 394.9 363.3, 1604.9 1047.6, 2000 741.3" stroke="#EFEAFB" stroke-width="1.49" fill="none" opacity="0.28" stroke-linecap="round"/>
    <path d="M -80 183.1 C 664.3 211.0, 1462.8 603.1, 2000 802.7" stroke="#EFEAFB" stroke-width="0.64" fill="none" opacity="0.28" stroke-linecap="round"/>
    <path d="M -80 495.1 C 813.3 1117.6, 1056.2 767.7, 2000 1097.1" stroke="#CBA36E" stroke-width="1.28" fill="none" opacity="0.18" stroke-linecap="round"/>
    <path d="M -80 1105.2 C 514.3 504.0, 1658.4 434.7, 2000 1100.6" stroke="#EFEAFB" stroke-width="1.05" fill="none" opacity="0.31" stroke-linecap="round"/>
    <path d="M -80 955.0 C 653.0 35.2, 1102.2 78.1, 2000 627.0" stroke="#EFEAFB" stroke-width="0.91" fill="none" opacity="0.28" stroke-linecap="round"/>
    <path d="M -80 723.2 C 553.9 777.6, 1477.0 73.4, 2000 9.7" stroke="#EFEAFB" stroke-width="1.40" fill="none" opacity="0.14" stroke-linecap="round"/>
    <path d="M -80 295.4 C 792.3 9.5, 1528.1 322.7, 2000 261.5" stroke="#EFEAFB" stroke-width="0.88" fill="none" opacity="0.11" stroke-linecap="round"/>
    <path d="M -80 305.1 C 662.6 866.2, 1093.6 270.7, 2000 107.6" stroke="#CBA36E" stroke-width="0.95" fill="none" opacity="0.10" stroke-linecap="round"/>
    <path d="M -80 -72.8 C 432.3 217.3, 1716.2 873.5, 2000 963.3" stroke="#EFEAFB" stroke-width="0.56" fill="none" opacity="0.20" stroke-linecap="round"/>
    <path d="M -80 863.3 C 868.4 521.8, 1488.9 1163.9, 2000 94.5" stroke="#EFEAFB" stroke-width="1.09" fill="none" opacity="0.19" stroke-linecap="round"/>
    <path d="M -80 708.3 C 523.8 771.5, 1623.8 996.9, 2000 47.8" stroke="#EFEAFB" stroke-width="1.17" fill="none" opacity="0.26" stroke-linecap="round"/>
    <path d="M -80 -9.3 C 531.0 179.9, 1654.8 1162.3, 2000 154.0" stroke="#EFEAFB" stroke-width="1.13" fill="none" opacity="0.28" stroke-linecap="round"/>
    <path d="M -80 683.4 C 384.3 171.1, 1200.9 -69.4, 2000 462.0" stroke="#CBA36E" stroke-width="1.40" fill="none" opacity="0.27" stroke-linecap="round"/>
    <path d="M -80 853.2 C 779.2 556.2, 1295.4 1003.6, 2000 -57.7" stroke="#EFEAFB" stroke-width="1.00" fill="none" opacity="0.30" stroke-linecap="round"/>
    <path d="M -80 890.4 C 447.4 61.2, 1615.1 552.1, 2000 977.2" stroke="#EFEAFB" stroke-width="1.40" fill="none" opacity="0.11" stroke-linecap="round"/>
    <path d="M -80 1170.3 C 437.8 731.8, 1090.9 1024.1, 2000 221.7" stroke="#EFEAFB" stroke-width="1.02" fill="none" opacity="0.31" stroke-linecap="round"/>
    <path d="M -80 344.5 C 463.0 107.7, 1725.1 288.8, 2000 1114.7" stroke="#EFEAFB" stroke-width="1.43" fill="none" opacity="0.22" stroke-linecap="round"/>
    <path d="M -80 894.6 C 918.3 1013.9, 1509.6 282.6, 2000 305.6" stroke="#CBA36E" stroke-width="1.21" fill="none" opacity="0.21" stroke-linecap="round"/>
  </g>
</svg>
