<svg xmlns="http://www.w3.org/2000/svg" viewBox="0 0 1920 1080" width="1920" height="1080">
  <defs>
    <linearGradient id="bg-hero-1" x1="0%" y1="0%" x2="60%" y2="100%">
      <stop offset="0%" stop-color="#141B45"/>
      <stop offset="100%" stop-color="#0A0E29"/>
    </linearGradient>
    <radialGradient id="glow-hero-1" cx="72%" cy="18%" r="60%">
      <stop offset="0%" stop-color="#C9A268" stop-opacity="0.16"/>
      <stop offset="100%" stop-color="#C9A268" stop-opacity="0"/>
    </radialGradient>
  </defs>
  <rect width="1920" height="1080" fill="url(#bg-hero-1)"/>
  <rect width="1920" height="1080" fill="url(#glow-hero-1)"/>
  <g>
    <circle cx="868.6" cy="604.6" r="1.51" fill="#FFFFFF" opacity="0.48"/>
    <circle cx="975.1" cy="634.4" r="0.62" fill="#FFFFFF" opacity="0.51"/>
    <circle cx="1209.4" cy="856.4" r="0.51" fill="#FFFFFF" opacity="0.36"/>
    <circle cx="174.1" cy="874.4" r="1.23" fill="#FFFFFF" opacity="0.18"/>
    <circle cx="1885.8" cy="1041.9" r="1.18" fill="#FFFFFF" opacity="0.58"/>
    <circle cx="302.4" cy="16.2" r="1.03" fill="#FFFFFF" opacity="0.19"/>
    <circle cx="365.2" cy="261.3" r="0.44" fill="#FFFFFF" opacity="0.47"/>
    <circle cx="845.8" cy="909.8" r="1.02" fill="#FFFFFF" opacity="0.60"/>
    <circle cx="959.6" cy="715.4" r="0.95" fill="#FFFFFF" opacity="0.34"/>
    <circle cx="1915.5" cy="1075.3" r="1.41" fill="#FFFFFF" opacity="0.65"/>
    <circle cx="605.3" cy="248.0" r="0.75" fill="#FFFFFF" opacity="0.20"/>
    <circle cx="1471.3" cy="432.4" r="1.42" fill="#FFFFFF" opacity="0.42"/>
    <circle cx="1839.4" cy="915.1" r="0.40" fill="#FFFFFF" opacity="0.30"/>
    <circle cx="1747.7" cy="507.6" r="1.58" fill="#FFFFFF" opacity="0.43"/>
    <circle cx="140.2" cy="679.8" r="1.33" fill="#FFFFFF" opacity="0.34"/>
    <circle cx="167.3" cy="359.2" r="1.56" fill="#FFFFFF" opacity="0.68"/>
    <circle cx="226.5" cy="266.1" r="0.52" fill="#FFFFFF" opacity="0.19"/>
    <circle cx="1530.3" cy="191.9" r="1.07" fill="#FFFFFF" opacity="0.46"/>
    <circle cx="366.1" cy="790.4" r="0.56" fill="#FFFFFF" opacity="0.60"/>
    <circle cx="223.7" cy="454.4" r="0.66" fill="#FFFFFF" opacity="0.34"/>
    <circle cx="1864.2" cy="867.7" r="0.76" fill="#FFFFFF" opacity="0.77"/>
    <circle cx="404.6" cy="425.8" r="1.43" fill="#FFFFFF" opacity="0.60"/>
    <circle cx="192.6" cy="1068.4" r="0.66" fill="#FFFFFF" opacity="0.33"/>
    <circle cx="1483.6" cy="355.3" r="0.76" fill="#FFFFFF" opacity="0.20"/>
    <circle cx="173.0" cy="629.4" r="0.69" fill="#FFFFFF" opacity="0.57"/>
    <circle cx="713.7" cy="489.5" r="1.55" fill="#FFFFFF" opacity="0.49"/>
    <circle cx="1103.2" cy="935.8" r="0.62" fill="#FFFFFF" opacity="0.26"/>
    <circle cx="1744.2" cy="883.2" r="0.70" fill="#FFFFFF" opacity="0.28"/>
    <circle cx="1419.7" cy="1015.6" r="0.64" fill="#FFFFFF" opacity="0.82"/>
    <circle cx="1693.8" cy="651.8" r="0.91" fill="#FFFFFF" opacity="0.22"/>
    <circle cx="74.3" cy="1039.7" r="0.69" fill="#FFFFFF" opacity="0.64"/>
    <circle cx="493.4" cy="889.6" r="1.12" fill="#FFFFFF" opacity="0.36"/>
    <circle cx="336.8" cy="778.0" r="0.48" fill="#FFFFFF" opacity="0.31"/>
    <circle cx="1074.0" cy="920.6" r="1.14" fill="#FFFFFF" opacity="0.35"/>
    <circle cx="1761.3" cy="220.3" r="0.42" fill="#FFFFFF" opacity="0.34"/>
    <circle cx="855.8" cy="65.3" r="0.61" fill="#FFFFFF" opacity="0.41"/>
    <circle cx="1098.6" cy="142.1" r="0.83" fill="#FFFFFF" opacity="0.77"/>
    <circle cx="1882.5" cy="709.5" r="1.23" fill="#FFFFFF" opacity="0.56"/>
    <circle cx="269.5" cy="37.9" r="0.42" fill="#FFFFFF" opacity="0.79"/>
    <circle cx="1345.9" cy="1039.8" r="0.43" fill="#FFFFFF" opacity="0.60"/>
    <circle cx="925.9" cy="788.9" r="0.78" fill="#FFFFFF" opacity="0.85"/>
    <circle cx="144.5" cy="589.8" r="1.28" fill="#FFFFFF" opacity="0.78"/>
    <circle cx="1415.2" cy="760.0" r="1.35" fill="#FFFFFF" opacity="0.79"/>
    <circle cx="675.5" cy="740.0" r="1.48" fill="#FFFFFF" opacity="0.76"/>
    <circle cx="800.9" cy="853.8" r="1.44" fill="#FFFFFF" opacity="0.55"/>
    <circle cx="1199.9" cy="412.9" r="1.10" fill="#FFFFFF" opacity="0.58"/>
    <circle cx="154.0" cy="690.6" r="1.59" fill="#FFFFFF" opacity="0.77"/>
    <circle cx="1398.2" cy="419.5" r="1.28" fill="#FFFFFF" opacity="0.56"/>
    <circle cx="845.8" cy="905.4" r="0.50" fill="#FFFFFF" opacity="0.68"/>
    <circle cx="57.2" cy="649.4" r="0.98" fill="#FFFFFF" opacity="0.31"/>
    <circle cx="1340.8" cy="537.0" r="1.14" fill="#FFFFFF" opacity="0.79"/>
    <circle cx="491.2" cy="12.2" r="0.76" fill="#FFFFFF" opacity="0.62"/>
    <circle cx="388.9" cy="183.2" r="1.49" fill="#FFFFFF" opacity="0.61"/>
    <circle cx="848.5" cy="963.1" r="0.79" fill="#FFFFFF" opacity="0.62"/>
    <circle cx="381.1" cy="465.4" r="1.37" fill="#FFFFFF" opacity="0.79"/>
    <circle cx="1690.1" cy="415.2" r="1.10" fill="#FFFFFF" opacity="0.37"/>
    <circle cx="261.5" cy="536.2" r="1.40" fill="#FFFFFF" opacity="0.74"/>
    <circle cx="1365.5" cy="1026.0" r="0.73" fill="#FFFFFF" opacity="0.27"/>
    <circle cx="865.2" cy="297.2" r="0.66" fill="#FFFFFF" opacity="0.44"/>
    <circle cx="1201.4" cy="533.4" r="0.78" fill="#FFFFFF" opacity="0.74"/>
    <circle cx="1885.5" cy="488.7" r="0.49" fill="#FFFFFF" opacity="0.17"/>
    <circle cx="1675.8" cy="44.8" r="1.25" fill="#FFFFFF" opacity="0.55"/>
    <circle cx="593.3" cy="854.8" r="0.42" fill="#FFFFFF" opacity="0.25"/>
    <circle cx="873.3" cy="26.7" r="1.40" fill="#FFFFFF" opacity="0.32"/>
    <circle cx="270.5" cy="50.7" r="1.16" fill="#FFFFFF" opacity="0.46"/>
    <circle cx="1209.5" cy="707.4" r="1.37" fill="#FFFFFF" opacity="0.82"/>
    <circle cx="1314.2" cy="215.3" r="0.97" fill="#FFFFFF" opacity="0.28"/>
    <circle cx="20.7" cy="510.0" r="1.26" fill="#FFFFFF" opacity="0.28"/>
    <circle cx="522.9" cy="373.4" r="1.24" fill="#FFFFFF" opacity="0.51"/>
    <circle cx="1179.7" cy="816.7" r="0.87" fill="#FFFFFF" opacity="0.70"/>
    <circle cx="1740.0" cy="94.2" r="1.52" fill="#FFFFFF" opacity="0.66"/>
    <circle cx="249.4" cy="489.8" r="1.15" fill="#FFFFFF" opacity="0.79"/>
    <circle cx="723.5" cy="614.3" r="1.46" fill="#FFFFFF" opacity="0.71"/>
    <circle cx="1813.0" cy="500.8" r="1.18" fill="#FFFFFF" opacity="0.29"/>
    <circle cx="1386.1" cy="883.8" r="1.17" fill="#FFFFFF" opacity="0.65"/>
    <circle cx="409.5" cy="972.0" r="1.58" fill="#FFFFFF" opacity="0.83"/>
    <circle cx="1031.0" cy="854.1" r="0.78" fill="#FFFFFF" opacity="0.79"/>
    <circle cx="1643.1" cy="376.4" r="0.50" fill="#FFFFFF" opacity="0.46"/>
    <circle cx="1056.6" cy="829.7" r="0.98" fill="#FFFFFF" opacity="0.17"/>
    <circle cx="1553.5" cy="69.2" r="1.36" fill="#FFFFFF" opacity="0.27"/>
    <circle cx="643.2" cy="850.9" r="0.57" fill="#FFFFFF" opacity="0.25"/>
    <circle cx="991.7" cy="781.5" r="1.41" fill="#FFFFFF" opacity="0.63"/>
    <circle cx="1815.8" cy="532.0" r="1.54" fill="#FFFFFF" opacity="0.21"/>
    <circle cx="425.1" cy="568.8" r="0.75" fill="#FFFFFF" opacity="0.66"/>
    <circle cx="1226.6" cy="564.6" r="1.41" fill="#FFFFFF" opacity="0.54"/>
    <circle cx="598.5" cy="411.7" r="1.41" fill="#FFFFFF" opacity="0.78"/>
    <circle cx="399.8" cy="918.8" r="1.56" fill="#FFFFFF" opacity="0.52"/>
    <circle cx="1100.1" cy="217.0" r="1.04" fill="#FFFFFF" opacity="0.50"/>
    <circle cx="1162.0" cy="30.0" r="1.56" fill="#FFFFFF" opacity="0.51"/>
    <circle cx="769.1" cy="865.2" r="1.08" fill="#FFFFFF" opacity="0.49"/>
    <circle cx="1326.7" cy="71.2" r="1.05" fill="#FFFFFF" opacity="0.44"/>
    <circle cx="1837.2" cy="997.3" r="0.72" fill="#FFFFFF" opacity="0.48"/>
    <circle cx="243.8" cy="468.4" r="1.38" fill="#FFFFFF" opacity="0.78"/>
    <circle cx="914.9" cy="342.6" r="0.63" fill="#FFFFFF" opacity="0.58"/>
    <circle cx="1776.5" cy="139.8" r="1.34" fill="#FFFFFF" opacity="0.17"/>
    <circle cx="372.7" cy="245.4" r="1.22" fill="#FFFFFF" opacity="0.38"/>
    <circle cx="682.3" cy="669.3" r="0.53" fill="#FFFFFF" opacity="0.66"/>
    <circle cx="235.7" cy="551.3" r="0.70" fill="#FFFFFF" opacity="0.29"/>
    <circle cx="1018.3" cy="471.7" r="0.85" fill="#FFFFFF" opacity="0.44"/>
    <circle cx="1016.3" cy="172.5" r="0.65" fill="#FFFFFF" opacity="0.59"/>
    <circle cx="1225.9" cy="572.0" r="1.42" fill="#FFFFFF" opacity="0.58"/>
    <circle cx="1645.0" cy="251.3" r="1.29" fill="#FFFFFF" opacity="0.72"/>
    <circle cx="1733.1" cy="341.1" r="0.78" fill="#FFFFFF" opacity="0.80"/>
    <circle cx="418.8" cy="1078.2" r="1.47" fill="#FFFFFF" opacity="0.24"/>
    <circle cx="459.5" cy="784.7" r="0.71" fill="#FFFFFF" opacity="0.22"/>
    <circle cx="1597.8" cy="455.4" r="1.35" fill="#FFFFFF" opacity="0.24"/>
    <circle cx="773.3" cy="740.0" r="0.42" fill="#FFFFFF" opacity="0.29"/>
    <circle cx="1310.2" cy="984.3" r="1.56" fill="#FFFFFF" opacity="0.23"/>
    <circle cx="970.9" cy="818.8" r="1.00" fill="#FFFFFF" opacity="0.63"/>
    <circle cx="362.9" cy="76.2" r="0.53" fill="#FFFFFF" opacity="0.18"/>
    <circle cx="1059.2" cy="556.0" r="1.08" fill="#FFFFFF" opacity="0.25"/>
    <circle cx="354.3" cy="220.2" r="1.41" fill="#FFFFFF" opacity="0.84"/>
    <circle cx="1779.6" cy="102.9" r="0.47" fill="#FFFFFF" opacity="0.82"/>
    <circle cx="887.2" cy="825.9" r="0.79" fill="#FFFFFF" opacity="0.48"/>
    <circle cx="989.4" cy="464.5" r="1.12" fill="#FFFFFF" opacity="0.16"/>
    <circle cx="1346.0" cy="911.8" r="0.62" fill="#FFFFFF" opacity="0.47"/>
    <circle cx="1419.5" cy="437.7" r="0.63" fill="#FFFFFF" opacity="0.27"/>
    <circle cx="984.1" cy="16.7" r="1.47" fill="#FFFFFF" opacity="0.71"/>
    <circle cx="1353.0" cy="929.6" r="1.16" fill="#FFFFFF" opacity="0.43"/>
    <circle cx="1151.2" cy="544.6" r="1.58" fill="#FFFFFF" opacity="0.71"/>
    <circle cx="495.9" cy="984.2" r="1.29" fill="#FFFFFF" opacity="0.69"/>
    <circle cx="1564.1" cy="438.1" r="1.48" fill="#FFFFFF" opacity="0.77"/>
    <circle cx="1334.0" cy="828.7" r="1.32" fill="#FFFFFF" opacity="0.43"/>
    <circle cx="1387.5" cy="76.2" r="0.81" fill="#FFFFFF" opacity="0.48"/>
    <circle cx="20.3" cy="384.1" r="1.17" fill="#FFFFFF" opacity="0.59"/>
    <circle cx="445.6" cy="1020.2" r="1.20" fill="#FFFFFF" opacity="0.39"/>
    <circle cx="1266.7" cy="615.1" r="1.04" fill="#FFFFFF" opacity="0.42"/>
    <circle cx="1919.8" cy="693.6" r="1.24" fill="#FFFFFF" opacity="0.68"/>
    <circle cx="1881.8" cy="24.6" r="1.14" fill="#FFFFFF" opacity="0.67"/>
    <circle cx="492.7" cy="433.7" r="0.46" fill="#FFFFFF" opacity="0.29"/>
    <circle cx="721.3" cy="106.3" r="0.70" fill="#FFFFFF" opacity="0.78"/>
    <circle cx="1056.1" cy="548.4" r="1.56" fill="#FFFFFF" opacity="0.55"/>
    <circle cx="1910.6" cy="689.1" r="1.37" fill="#FFFFFF" opacity="0.20"/>
    <circle cx="1147.3" cy="820.0" r="0.45" fill="#FFFFFF" opacity="0.80"/>
    <circle cx="307.1" cy="509.5" r="0.60" fill="#FFFFFF" opacity="0.50"/>
    <circle cx="1173.4" cy="63.2" r="1.53" fill="#FFFFFF" opacity="0.44"/>
    <circle cx="1011.4" cy="645.7" r="0.84" fill="#FFFFFF" opacity="0.35"/>
    <circle cx="1257.8" cy="605.5" r="0.74" fill="#FFFFFF" opacity="0.65"/>
    <circle cx="568.4" cy="15.1" r="0.69" fill="#FFFFFF" opacity="0.18"/>
    <circle cx="300.6" cy="815.0" r="0.87" fill="#FFFFFF" opacity="0.78"/>
    <circle cx="1436.9" cy="54.2" r="1.59" fill="#FFFFFF" opacity="0.81"/>
    <circle cx="141.1" cy="978.0" r="0.92" fill="#FFFFFF" opacity="0.48"/>
    <circle cx="1868.5" cy="263.2" r="1.03" fill="#FFFFFF" opacity="0.81"/>
    <circle cx="1387.7" cy="505.8" r="1.57" fill="#FFFFFF" opacity="0.72"/>
    <circle cx="1159.0" cy="124.3" r="1.15" fill="#FFFFFF" opacity="0.47"/>
    <circle cx="391.0" cy="56.2" r="1.03" fill="#FFFFFF" opacity="0.24"/>
    <circle cx="850.3" cy="721.3" r="0.95" fill="#FFFFFF" opacity="0.33"/>
    <circle cx="1117.9" cy="453.1" r="1.33" fill="#FFFFFF" opacity="0.52"/>
    <circle cx="1915.5" cy="1028.8" r="1.28" fill="#FFFFFF" opacity="0.32"/>
    <circle cx="218.6" cy="964.1" r="1.34" fill="#FFFFFF" opacity="0.59"/>
    <circle cx="689.6" cy="293.2" r="1.22" fill="#FFFFFF" opacity="0.55"/>
    <circle cx="1136.0" cy="683.7" r="1.30" fill="#FFFFFF" opacity="0.28"/>
    <circle cx="478.0" cy="1058.1" r="1.50" fill="#FFFFFF" opacity="0.77"/>
    <circle cx="75.9" cy="65.6" r="0.73" fill="#FFFFFF" opacity="0.45"/>
    <circle cx="1196.8" cy="110.7" r="1.05" fill="#FFFFFF" opacity="0.20"/>
    <circle cx="166.0" cy="730.4" r="1.06" fill="#FFFFFF" opacity="0.59"/>
    <circle cx="716.5" cy="516.8" r="0.65" fill="#FFFFFF" opacity="0.39"/>
    <circle cx="1430.1" cy="905.6" r="0.49" fill="#FFFFFF" opacity="0.23"/>
    <circle cx="1553.6" cy="673.6" r="1.32" fill="#FFFFFF" opacity="0.30"/>
    <circle cx="814.8" cy="278.7" r="1.37" fill="#FFFFFF" opacity="0.41"/>
    <circle cx="1255.0" cy="1068.3" r="0.79" fill="#FFFFFF" opacity="0.53"/>
    <circle cx="1432.5" cy="994.5" r="0.91" fill="#FFFFFF" opacity="0.41"/>
    <circle cx="186.3" cy="945.2" r="0.49" fill="#FFFFFF" opacity="0.21"/>
    <circle cx="1083.3" cy="523.6" r="1.22" fill="#FFFFFF" opacity="0.36"/>
    <circle cx="1489.0" cy="82.2" r="0.66" fill="#FFFFFF" opacity="0.61"/>
    <circle cx="156.9" cy="328.1" r="1.27" fill="#FFFFFF" opacity="0.64"/>
    <circle cx="543.2" cy="154.4" r="0.83" fill="#FFFFFF" opacity="0.66"/>
    <circle cx="703.5" cy="126.8" r="1.25" fill="#FFFFFF" opacity="0.55"/>
    <circle cx="1763.6" cy="1015.1" r="1.50" fill="#FFFFFF" opacity="0.46"/>
    <circle cx="1541.9" cy="329.1" r="0.78" fill="#FFFFFF" opacity="0.43"/>
    <circle cx="1794.6" cy="966.3" r="0.70" fill="#FFFFFF" opacity="0.40"/>
    <circle cx="701.9" cy="392.4" r="0.87" fill="#FFFFFF" opacity="0.42"/>
    <circle cx="374.3" cy="608.9" r="1.36" fill="#FFFFFF" opacity="0.53"/>
    <circle cx="1605.8" cy="607.8" r="0.61" fill="#FFFFFF" opacity="0.68"/>
    <circle cx="1691.3" cy="304.0" r="0.43" fill="#FFFFFF" opacity="0.51"/>
    <circle cx="1044.8" cy="612.9" r="1.56" fill="#FFFFFF" opacity="0.61"/>
    <circle cx="1544.3" cy="69.2" r="1.06" fill="#FFFFFF" opacity="0.70"/>
    <circle cx="161.4" cy="88.2" r="1.28" fill="#FFFFFF" opacity="0.78"/>
    <circle cx="162.6" cy="684.9" r="0.57" fill="#FFFFFF" opacity="0.67"/>
    <circle cx="1246.1" cy="265.1" r="0.66" fill="#FFFFFF" opacity="0.69"/>
    <circle cx="1001.4" cy="825.9" r="0.87" fill="#FFFFFF" opacity="0.39"/>
    <circle cx="1859.1" cy="726.2" r="0.99" fill="#FFFFFF" opacity="0.53"/>
    <circle cx="1384.2" cy="764.8" r="1.50" fill="#FFFFFF" opacity="0.44"/>
    <circle cx="1586.4" cy="720.1" r="1.42" fill="#FFFFFF" opacity="0.71"/>
    <circle cx="1600.9" cy="959.7" r="1.55" fill="#FFFFFF" opacity="0.60"/>
    <circle cx="1005.8" cy="766.9" r="1.36" fill="#FFFFFF" opacity="0.45"/>
    <circle cx="807.3" cy="157.9" r="1.29" fill="#FFFFFF" opacity="0.84"/>
    <circle cx="721.0" cy="181.1" r="0.65" fill="#FFFFFF" opacity="0.45"/>
    <circle cx="560.7" cy="1047.3" r="0.47" fill="#FFFFFF" opacity="0.37"/>
    <circle cx="220.4" cy="699.8" r="1.33" fill="#FFFFFF" opacity="0.28"/>
    <circle cx="119.7" cy="495.5" r="1.10" fill="#FFFFFF" opacity="0.79"/>
    <circle cx="69.8" cy="117.4" r="0.62" fill="#FFFFFF" opacity="0.30"/>
    <circle cx="452.0" cy="774.6" r="1.11" fill="#FFFFFF" opacity="0.31"/>
    <circle cx="355.2" cy="303.5" r="0.61" fill="#FFFFFF" opacity="0.68"/>
    <circle cx="598.5" cy="592.1" r="1.38" fill="#FFFFFF" opacity="0.49"/>
    <circle cx="500.1" cy="958.4" r="1.50" fill="#FFFFFF" opacity="0.39"/>
    <circle cx="1050.9" cy="1033.6" r="0.98" fill="#FFFFFF" opacity="0.30"/>
    <circle cx="95.4" cy="1023.3" r="1.36" fill="#FFFFFF" opacity="0.42"/>
    <circle cx="1013.0" cy="557.1" r="0.73" fill="#FFFFFF" opacity="0.84"/>
    <circle cx="1262.5" cy="256.6" r="0.41" fill="#FFFFFF" opacity="0.48"/>
    <circle cx="713.4" cy="860.5" r="1.26" fill="#FFFFFF" opacity="0.57"/>
    <circle cx="302.0" cy="169.5" r="0.79" fill="#FFFFFF" opacity="0.33"/>
    <circle cx="1669.0" cy="557.4" r="1.16" fill="#FFFFFF" opacity="0.85"/>
    <circle cx="511.7" cy="577.3" r="0.58" fill="#FFFFFF" opacity="0.69"/>
    <circle cx="2.6" cy="887.1" r="1.42" fill="#FFFFFF" opacity="0.73"/>
    <circle cx="158.3" cy="291.5" r="1.26" fill="#FFFFFF" opacity="0.22"/>
    <circle cx="921.8" cy="506.2" r="1.55" fill="#FFFFFF" opacity="0.56"/>
    <circle cx="1646.1" cy="327.9" r="1.35" fill="#FFFFFF" opacity="0.44"/>
    <circle cx="1760.2" cy="98.2" r="1.39" fill="#FFFFFF" opacity="0.30"/>
    <circle cx="1043.3" cy="567.7" r="0.59" fill="#FFFFFF" opacity="0.73"/>
    <circle cx="597.9" cy="335.6" r="0.49" fill="#FFFFFF" opacity="0.36"/>
    <circle cx="897.1" cy="772.4" r="0.83" fill="#FFFFFF" opacity="0.63"/>
    <circle cx="203.0" cy="425.8" r="0.95" fill="#FFFFFF" opacity="0.83"/>
    <circle cx="1593.1" cy="706.3" r="0.41" fill="#FFFFFF" opacity="0.41"/>
    <circle cx="1363.2" cy="256.5" r="1.08" fill="#FFFFFF" opacity="0.47"/>
    <circle cx="20.1" cy="1071.0" r="1.36" fill="#FFFFFF" opacity="0.29"/>
    <circle cx="1182.8" cy="313.6" r="0.85" fill="#FFFFFF" opacity="0.53"/>
    <circle cx="572.6" cy="364.4" r="0.87" fill="#FFFFFF" opacity="0.62"/>
    <circle cx="492.4" cy="215.9" r="1.28" fill="#FFFFFF" opacity="0.38"/>
    <circle cx="1814.5" cy="607.8" r="1.27" fill="#FFFFFF" opacity="0.38"/>
    <circle cx="1587.6" cy="99.7" r="0.57" fill="#FFFFFF" opacity="0.22"/>
    <circle cx="1301.2" cy="765.0" r="0.62" fill="#FFFFFF" opacity="0.43"/>
    <circle cx="1606.9" cy="640.2" r="0.51" fill="#FFFFFF" opacity="0.31"/>
    <circle cx="301.6" cy="134.0" r="0.89" fill="#FFFFFF" opacity="0.20"/>
    <circle cx="1767.6" cy="461.2" r="1.01" fill="#FFFFFF" opacity="0.60"/>
    <circle cx="1472.4" cy="886.8" r="0.86" fill="#FFFFFF" opacity="0.38"/>
    <circle cx="791.3" cy="16.7" r="0.88" fill="#FFFFFF" opacity="0.64"/>
    <circle cx="1885.3" cy="852.8" r="1.19" fill="#FFFFFF" opacity="0.58"/>
    <circle cx="35.6" cy="357.5" r="0.81" fill="#FFFFFF" opacity="0.61"/>
    <circle cx="204.1" cy="407.8" r="1.01" fill="#FFFFFF" opacity="0.70"/>
    <circle cx="1584.4" cy="660.4" r="0.59" fill="#FFFFFF" opacity="0.69"/>
    <circle cx="1733.8" cy="592.1" r="0.82" fill="#FFFFFF" opacity="0.50"/>
    <circle cx="272.2" cy="770.5" r="1.58" fill="#FFFFFF" opacity="0.51"/>
    <circle cx="1373.5" cy="902.4" r="0.64" fill="#FFFFFF" opacity="0.81"/>
    <circle cx="1204.1" cy="213.7" r="0.50" fill="#FFFFFF" opacity="0.32"/>
    <circle cx="1106.9" cy="752.9" r="0.80" fill="#FFFFFF" opacity="0.80"/>
    <circle cx="693.5" cy="500.1" r="0.55" fill="#FFFFFF" opacity="0.83"/>
    <circle cx="260.4" cy="976.4" r="1.05" fill="#FFFFFF" opacity="0.54"/>
    <circle cx="1075.9" cy="285.5" r="1.49" fill="#FFFFFF" opacity="0.84"/>
    <circle cx="1569.6" cy="649.6" r="0.55" fill="#FFFFFF" opacity="0.73"/>
    <circle cx="554.1" cy="968.8" r="0.69" fill="#FFFFFF" opacity="0.55"/>
    <circle cx="1595.0" cy="200.4" r="1.06" fill="#FFFFFF" opacity="0.20"/>
    <circle cx="61.5" cy="194.5" r="1.58" fill="#FFFFFF" opacity="0.81"/>
    <circle cx="1264.1" cy="332.3" r="1.21" fill="#FFFFFF" opacity="0.67"/>
    <circle cx="732.8" cy="639.2" r="1.36" fill="#FFFFFF" opacity="0.16"/>
    <circle cx="383.1" cy="505.5" r="0.57" fill="#FFFFFF" opacity="0.42"/>
    <circle cx="1093.5" cy="187.6" r="1.02" fill="#FFFFFF" opacity="0.33"/>
    <circle cx="1090.6" cy="358.7" r="1.17" fill="#FFFFFF" opacity="0.18"/>
    <circle cx="1288.3" cy="156.3" r="1.55" fill="#FFFFFF" opacity="0.57"/>
    <circle cx="902.2" cy="444.3" r="1.15" fill="#FFFFFF" opacity="0.63"/>
    <circle cx="1455.4" cy="811.9" r="0.98" fill="#FFFFFF" opacity="0.85"/>
    <circle cx="1609.4" cy="923.5" r="0.89" fill="#FFFFFF" opacity="0.45"/>
    <circle cx="1086.7" cy="977.7" r="1.03" fill="#FFFFFF" opacity="0.52"/>
    <circle cx="829.9" cy="976.6" r="0.78" fill="#FFFFFF" opacity="0.19"/>
    <circle cx="1393.1" cy="972.1" r="1.28" fill="#FFFFFF" opacity="0.57"/>
    <circle cx="1443.6" cy="329.1" r="1.11" fill="#FFFFFF" opacity="0.20"/>
    <circle cx="238.9" cy="482.7" r="1.00" fill="#FFFFFF" opacity="0.43"/>
    <circle cx="99.8" cy="750.5" r="1.03" fill="#FFFFFF" opacity="0.32"/>
    <circle cx="588.1" cy="427.2" r="0.68" fill="#FFFFFF" opacity="0.20"/>
    <circle cx="1749.7" cy="1043.8" r="1.20" fill="#FFFFFF" opacity="0.76"/>
  </g>
  <g>
    <path d="M -80 439.4 C 814.1 930.7, 1436.9 183.9, 2000 914.2" stroke="#C9A268" stroke-width="1.49" fill="none" opacity="0.10" stroke-linecap="round"/>
    <path d="M -80 58.5 C 384.3 588.1, 1219.9 1117.2, 2000 -19.8" stroke="#EDEBFB" stroke-width="0.83" fill="none" opacity="0.16" stroke-linecap="round"/>
    <path d="M -80 1045.8 C 589.3 943.8, 1449.5 408.5, 2000 1050.1" stroke="#EDEBFB" stroke-width="0.55" fill="none" opacity="0.09" stroke-linecap="round"/>
    <path d="M -80 294.0 C 946.9 538.0, 1373.6 1095.4, 2000 1081.0" stroke="#EDEBFB" stroke-width="0.73" fill="none" opacity="0.15" stroke-linecap="round"/>
    <path d="M -80 1047.9 C 588.0 150.2, 1373.5 972.5, 2000 1174.1" stroke="#EDEBFB" stroke-width="0.69" fill="none" opacity="0.29" stroke-linecap="round"/>
    <path d="M -80 158.6 C 891.0 709.5, 1089.6 145.1, 2000 300.6" stroke="#C9A268" stroke-width="0.62" fill="none" opacity="0.25" stroke-linecap="round"/>
    <path d="M -80 1052.4 C 461.7 1013.1, 1523.7 812.8, 2000 1.1" stroke="#EDEBFB" stroke-width="1.53" fill="none" opacity="0.19" stroke-linecap="round"/>
    <path d="M -80 185.7 C 497.2 293.2, 1177.6 809.5, 2000 911.8" stroke="#EDEBFB" stroke-width="0.76" fill="none" opacity="0.24" stroke-linecap="round"/>
    <path d="M -80 376.8 C 723.8 747.4, 1209.9 1032.1, 2000 753.8" stroke="#EDEBFB" stroke-width="0.83" fill="none" opacity="0.30" stroke-linecap="round"/>
    <path d="M -80 254.3 C 950.2 719.1, 1351.9 15.2, 2000 -42.0" stroke="#EDEBFB" stroke-width="1.08" fill="none" opacity="0.21" stroke-linecap="round"/>
    <path d="M -80 667.6 C 846.7 264.2, 1114.6 221.2, 2000 214.8" stroke="#C9A268" stroke-width="0.81" fill="none" opacity="0.26" stroke-linecap="round"/>
    <path d="M -80 257.3 C 900.7 601.6, 1719.8 138.5, 2000 860.8" stroke="#EDEBFB" stroke-width="0.54" fill="none" opacity="0.19" stroke-linecap="round"/>
    <path d="M -80 392.4 C 487.6 1089.5, 1429.6 539.9, 2000 742.6" stroke="#EDEBFB" stroke-width="1.21" fill="none" opacity="0.17" stroke-linecap="round"/>
    <path d="M -80 902.2 C 870.9 561.4, 1515.8 547.2, 2000 122.6" stroke="#EDEBFB" stroke-width="1.07" fill="none" opacity="0.31" stroke-linecap="round"/>
    <path d="M -80 898.0 C 519.6 111.4, 1352.0 678.3, 2000 912.6" stroke="#EDEBFB" stroke-width="1.35" fill="none" opacity="0.27" stroke-linecap="round"/>
    <path d="M -80 202.0 C 718.1 526.1, 1391.3 183.2, 2000 814.8" stroke="#C9A268" stroke-width="0.54" fill="none" opacity="0.22" stroke-linecap="round"/>
    <path d="M -80 633.0 C 471.4 1017.3, 1068.0 130.4, 2000 465.3" stroke="#EDEBFB" stroke-width="1.05" fill="none" opacity="0.18" stroke-linecap="round"/>
    <path d="M -80 236.6 C 906.6 922.1, 1438.3 -7.2, 2000 204.6" stroke="#EDEBFB" stroke-width="1.10" fill="none" opacity="0.27" stroke-linecap="round"/>
    <path d="M -80 87.2 C 565.1 298.1, 1473.4 -45.8, 2000 653.5" stroke="#EDEBFB" stroke-width="1.08" fill="none" opacity="0.14" stroke-linecap="round"/>
    <path d="M -80 13.3 C 530.8 950.3, 1163.4 119.6, 2000 907.0" stroke="#EDEBFB" stroke-width="1.26" fill="none" opacity="0.28" stroke-linecap="round"/>
    <path d="M -80 -21.7 C 508.6 425.6, 1708.2 366.5, 2000 874.4" stroke="#C9A268" stroke-width="0.55" fill="none" opacity="0.20" stroke-linecap="round"/>
    <path d="M -80 1162.3 C 813.1 85.1, 1082.4 482.8, 2000 81.2" stroke="#EDEBFB" stroke-width="0.76" fill="none" opacity="0.29" stroke-linecap="round"/>
    <path d="M -80 402.9 C 428.1 281.5, 1079.0 443.3, 2000 839.6" stroke="#EDEBFB" stroke-width="1.60" fill="none" opacity="0.26" stroke-linecap="round"/>
    <path d="M -80 194.2 C 523.2 224.1, 1366.2 606.4, 2000 331.4" stroke="#EDEBFB" stroke-width="1.53" fill="none" opacity="0.17" stroke-linecap="round"/>
    <path d="M -80 1156.0 C 616.2 681.9, 1492.7 -49.2, 2000 789.2" stroke="#EDEBFB" stroke-width="0.56" fill="none" opacity="0.16" stroke-linecap="round"/>
    <path d="M -80 1006.5 C 650.5 656.0, 1320.0 1034.6, 2000 900.1" stroke="#C9A268" stroke-width="1.43" fill="none" opacity="0.17" stroke-linecap="round"/>
  </g>
</svg>
