<svg xmlns="http://www.w3.org/2000/svg" viewBox="0 0 1920 1080" width="1920" height="1080">
  <defs>
    <linearGradient id="bg-hero-2" x1="0%" y1="0%" x2="60%" y2="100%">
      <stop offset="0%" stop-color="#1B2559"/>
      <stop offset="100%" stop-color="#0C1030"/>
    </linearGradient>
    <radialGradient id="glow-hero-2" cx="72%" cy="18%" r="60%">
      <stop offset="0%" stop-color="#B8925A" stop-opacity="0.16"/>
      <stop offset="100%" stop-color="#B8925A" stop-opacity="0"/>
    </radialGradient>
  </defs>
  <rect width="1920" height="1080" fill="url(#bg-hero-2)"/>
  <rect width="1920" height="1080" fill="url(#glow-hero-2)"/>
  <g>
    <circle cx="1227.7" cy="27.0" r="0.73" fill="#FFFFFF" opacity="0.31"/>
    <circle cx="1414.0" cy="730.8" r="1.47" fill="#FFFFFF" opacity="0.21"/>
    <circle cx="810.1" cy="32.2" r="0.66" fill="#FFFFFF" opacity="0.50"/>
    <circle cx="50.9" cy="214.7" r="1.18" fill="#FFFFFF" opacity="0.53"/>
    <circle cx="423.2" cy="636.4" r="1.37" fill="#FFFFFF" opacity="0.15"/>
    <circle cx="1547.2" cy="754.0" r="0.81" fill="#FFFFFF" opacity="0.26"/>
    <circle cx="1837.8" cy="363.5" r="0.51" fill="#FFFFFF" opacity="0.22"/>
    <circle cx="1627.2" cy="652.0" r="1.37" fill="#FFFFFF" opacity="0.66"/>
    <circle cx="1029.6" cy="1051.0" r="0.85" fill="#FFFFFF" opacity="0.54"/>
    <circle cx="1592.5" cy="668.0" r="1.43" fill="#FFFFFF" opacity="0.55"/>
    <circle cx="1352.8" cy="49.5" r="0.67" fill="#FFFFFF" opacity="0.35"/>
    <circle cx="153.2" cy="251.4" r="0.52" fill="#FFFFFF" opacity="0.34"/>
    <circle cx="1220.5" cy="394.0" r="0.84" fill="#FFFFFF" opacity="0.30"/>
    <circle cx="512.6" cy="1011.6" r="1.18" fill="#FFFFFF" opacity="0.58"/>
    <circle cx="328.6" cy="787.5" r="0.60" fill="#FFFFFF" opacity="0.42"/>
    <circle cx="1899.9" cy="691.2" r="1.07" fill="#FFFFFF" opacity="0.63"/>
    <circle cx="1618.3" cy="838.1" r="0.67" fill="#FFFFFF" opacity="0.17"/>
    <circle cx="605.7" cy="289.2" r="0.65" fill="#FFFFFF" opacity="0.81"/>
    <circle cx="1682.6" cy="339.9" r="1.19" fill="#FFFFFF" opacity="0.43"/>
    <circle cx="1755.9" cy="495.6" r="0.72" fill="#FFFFFF" opacity="0.32"/>
    <circle cx="1077.8" cy="283.8" r="1.10" fill="#FFFFFF" opacity="0.78"/>
    <circle cx="766.8" cy="236.9" r="1.60" fill="#FFFFFF" opacity="0.51"/>
    <circle cx="174.5" cy="50.9" r="0.53" fill="#FFFFFF" opacity="0.59"/>
    <circle cx="1520.8" cy="455.9" r="0.48" fill="#FFFFFF" opacity="0.42"/>
    <circle cx="1912.6" cy="571.4" r="1.57" fill="#FFFFFF" opacity="0.75"/>
    <circle cx="22.0" cy="778.4" r="1.22" fill="#FFFFFF" opacity="0.53"/>
    <circle cx="512.3" cy="692.2" r="0.53" fill="#FFFFFF" opacity="0.45"/>
    <circle cx="871.1" cy="1030.1" r="1.45" fill="#FFFFFF" opacity="0.33"/>
    <circle cx="961.1" cy="192.9" r="1.50" fill="#FFFFFF" opacity="0.76"/>
    <circle cx="573.0" cy="690.1" r="1.13" fill="#FFFFFF" opacity="0.26"/>
    <circle cx="1464.0" cy="582.5" r="1.33" fill="#FFFFFF" opacity="0.52"/>
    <circle cx="1.1" cy="350.1" r="0.42" fill="#FFFFFF" opacity="0.80"/>
    <circle cx="1687.1" cy="898.2" r="0.77" fill="#FFFFFF" opacity="0.19"/>
    <circle cx="1685.8" cy="1022.7" r="0.50" fill="#FFFFFF" opacity="0.49"/>
    <circle cx="132.9" cy="821.5" r="1.32" fill="#FFFFFF" opacity="0.24"/>
    <circle cx="912.5" cy="593.8" r="0.72" fill="#FFFFFF" opacity="0.76"/>
    <circle cx="812.4" cy="228.7" r="1.05" fill="#FFFFFF" opacity="0.66"/>
    <circle cx="386.2" cy="336.7" r="1.59" fill="#FFFFFF" opacity="0.60"/>
    <circle cx="841.2" cy="559.0" r="0.55" fill="#FFFFFF" opacity="0.31"/>
    <circle cx="649.1" cy="635.4" r="0.68" fill="#FFFFFF" opacity="0.30"/>
    <circle cx="136.3" cy="681.6" r="0.67" fill="#FFFFFF" opacity="0.78"/>
    <circle cx="1650.5" cy="76.5" r="0.69" fill="#FFFFFF" opacity="0.62"/>
    <circle cx="411.3" cy="142.9" r="1.52" fill="#FFFFFF" opacity="0.55"/>
    <circle cx="907.5" cy="847.4" r="1.37" fill="#FFFFFF" opacity="0.28"/>
    <circle cx="186.1" cy="465.5" r="0.91" fill="#FFFFFF" opacity="0.48"/>
    <circle cx="1399.8" cy="727.2" r="1.58" fill="#FFFFFF" opacity="0.22"/>
    <circle cx="773.0" cy="366.4" r="1.43" fill="#FFFFFF" opacity="0.32"/>
    <circle cx="365.2" cy="484.5" r="0.91" fill="#FFFFFF" opacity="0.34"/>
    <circle cx="479.6" cy="997.1" r="0.93" fill="#FFFFFF" opacity="0.75"/>
    <circle cx="1056.6" cy="54.6" r="1.60" fill="#FFFFFF" opacity="0.74"/>
    <circle cx="1860.5" cy="1000.5" r="1.42" fill="#FFFFFF" opacity="0.27"/>
    <circle cx="932.4" cy="230.8" r="0.88" fill="#FFFFFF" opacity="0.19"/>
    <circle cx="727.6" cy="1064.1" r="0.72" fill="#FFFFFF" opacity="0.70"/>
    <circle cx="873.6" cy="456.8" r="1.55" fill="#FFFFFF" opacity="0.85"/>
    <circle cx="1067.1" cy="775.9" r="0.59" fill="#FFFFFF" opacity="0.36"/>
    <circle cx="1859.9" cy="625.5" r="1.05" fill="#FFFFFF" opacity="0.67"/>
    <circle cx="109.8" cy="630.9" r="1.00" fill="#FFFFFF" opacity="0.75"/>
    <circle cx="302.3" cy="1037.6" r="0.50" fill="#FFFFFF" opacity="0.28"/>
    <circle cx="1142.5" cy="729.2" r="0.68" fill="#FFFFFF" opacity="0.23"/>
    <circle cx="1709.4" cy="265.9" r="1.11" fill="#FFFFFF" opacity="0.58"/>
    <circle cx="804.9" cy="630.4" r="1.03" fill="#FFFFFF" opacity="0.80"/>
    <circle cx="392.2" cy="773.5" r="0.69" fill="#FFFFFF" opacity="0.43"/>
    <circle cx="1289.6" cy="324.0" r="0.78" fill="#FFFFFF" opacity="0.68"/>
    <circle cx="139.3" cy="494.9" r="1.60" fill="#FFFFFF" opacity="0.85"/>
    <circle cx="140.7" cy="230.2" r="0.72" fill="#FFFFFF" opacity="0.80"/>
    <circle cx="1691.3" cy="949.6" r="0.84" fill="#FFFFFF" opacity="0.26"/>
    <circle cx="1600.8" cy="759.8" r="1.13" fill="#FFFFFF" opacity="0.84"/>
    <circle cx="1255.6" cy="8.4" r="1.38" fill="#FFFFFF" opacity="0.36"/>
    <circle cx="1273.7" cy="1014.0" r="0.56" fill="#FFFFFF" opacity="0.23"/>
    <circle cx="205.5" cy="597.5" r="0.73" fill="#FFFFFF" opacity="0.57"/>
    <circle cx="1377.8" cy="219.9" r="1.16" fill="#FFFFFF" opacity="0.33"/>
    <circle cx="938.0" cy="977.8" r="1.42" fill="#FFFFFF" opacity="0.21"/>
    <circle cx="813.3" cy="298.8" r="0.40" fill="#FFFFFF" opacity="0.69"/>
    <circle cx="1223.3" cy="282.9" r="1.29" fill="#FFFFFF" opacity="0.54"/>
    <circle cx="821.2" cy="10.4" r="0.49" fill="#FFFFFF" opacity="0.77"/>
    <circle cx="1735.5" cy="589.2" r="1.40" fill="#FFFFFF" opacity="0.56"/>
    <circle cx="284.3" cy="137.6" r="0.77" fill="#FFFFFF" opacity="0.78"/>
    <circle cx="1528.6" cy="929.6" r="1.48" fill="#FFFFFF" opacity="0.30"/>
    <circle cx="479.1" cy="111.0" r="1.34" fill="#FFFFFF" opacity="0.77"/>
    <circle cx="780.2" cy="670.3" r="0.59" fill="#FFFFFF" opacity="0.80"/>
    <circle cx="1660.0" cy="1054.3" r="1.37" fill="#FFFFFF" opacity="0.77"/>
    <circle cx="47.6" cy="795.5" r="0.80" fill="#FFFFFF" opacity="0.80"/>
    <circle cx="1540.3" cy="933.2" r="1.37" fill="#FFFFFF" opacity="0.34"/>
    <circle cx="1511.8" cy="116.7" r="1.45" fill="#FFFFFF" opacity="0.75"/>
    <circle cx="427.1" cy="881.9" r="0.95" fill="#FFFFFF" opacity="0.36"/>
    <circle cx="1527.1" cy="245.8" r="0.43" fill="#FFFFFF" opacity="0.29"/>
    <circle cx="630.3" cy="933.5" r="1.56" fill="#FFFFFF" opacity="0.35"/>
    <circle cx="1231.6" cy="431.7" r="1.58" fill="#FFFFFF" opacity="0.53"/>
    <circle cx="1803.3" cy="124.6" r="1.56" fill="#FFFFFF" opacity="0.27"/>
    <circle cx="1848.1" cy="286.7" r="0.53" fill="#FFFFFF" opacity="0.45"/>
    <circle cx="1398.8" cy="338.8" r="1.13" fill="#FFFFFF" opacity="0.51"/>
    <circle cx="739.6" cy="622.7" r="0.71" fill="#FFFFFF" opacity="0.65"/>
    <circle cx="3.2" cy="999.6" r="1.05" fill="#FFFFFF" opacity="0.65"/>
    <circle cx="1424.5" cy="724.3" r="0.84" fill="#FFFFFF" opacity="0.20"/>
    <circle cx="1275.3" cy="356.6" r="0.78" fill="#FFFFFF" opacity="0.74"/>
    <circle cx="1381.9" cy="324.3" r="0.77" fill="#FFFFFF" opacity="0.44"/>
    <circle cx="772.6" cy="319.3" r="0.55" fill="#FFFFFF" opacity="0.44"/>
    <circle cx="1805.5" cy="731.5" r="1.48" fill="#FFFFFF" opacity="0.58"/>
    <circle cx="577.8" cy="591.8" r="0.40" fill="#FFFFFF" opacity="0.35"/>
    <circle cx="825.4" cy="626.4" r="1.19" fill="#FFFFFF" opacity="0.48"/>
    <circle cx="848.9" cy="230.8" r="0.97" fill="#FFFFFF" opacity="0.78"/>
    <circle cx="1528.4" cy="183.3" r="0.50" fill="#FFFFFF" opacity="0.51"/>
    <circle cx="1215.2" cy="362.0" r="1.38" fill="#FFFFFF" opacity="0.68"/>
    <circle cx="1291.8" cy="242.6" r="0.64" fill="#FFFFFF" opacity="0.17"/>
    <circle cx="470.1" cy="513.1" r="1.42" fill="#FFFFFF" opacity="0.20"/>
    <circle cx="795.7" cy="680.1" r="0.63" fill="#FFFFFF" opacity="0.64"/>
    <circle cx="949.2" cy="263.5" r="1.19" fill="#FFFFFF" opacity="0.15"/>
    <circle cx="1441.9" cy="831.6" r="0.53" fill="#FFFFFF" opacity="0.45"/>
    <circle cx="337.7" cy="1034.6" r="1.02" fill="#FFFFFF" opacity="0.19"/>
    <circle cx="478.5" cy="916.2" r="0.95" fill="#FFFFFF" opacity="0.71"/>
    <circle cx="1281.7" cy="1066.9" r="1.11" fill="#FFFFFF" opacity="0.82"/>
    <circle cx="1711.5" cy="661.7" r="1.26" fill="#FFFFFF" opacity="0.50"/>
    <circle cx="1594.7" cy="591.7" r="1.48" fill="#FFFFFF" opacity="0.67"/>
    <circle cx="911.4" cy="279.9" r="0.70" fill="#FFFFFF" opacity="0.60"/>
    <circle cx="1470.4" cy="563.0" r="1.15" fill="#FFFFFF" opacity="0.34"/>
    <circle cx="148.8" cy="308.6" r="0.73" fill="#FFFFFF" opacity="0.37"/>
    <circle cx="1037.1" cy="149.4" r="0.68" fill="#FFFFFF" opacity="0.64"/>
    <circle cx="1356.3" cy="69.4" r="0.89" fill="#FFFFFF" opacity="0.53"/>
    <circle cx="798.3" cy="223.4" r="0.90" fill="#FFFFFF" opacity="0.78"/>
    <circle cx="1121.4" cy="751.2" r="1.43" fill="#FFFFFF" opacity="0.69"/>
    <circle cx="730.3" cy="6.4" r="0.82" fill="#FFFFFF" opacity="0.68"/>
    <circle cx="1638.6" cy="1029.7" r="0.90" fill="#FFFFFF" opacity="0.67"/>
    <circle cx="1048.6" cy="651.5" r="0.66" fill="#FFFFFF" opacity="0.30"/>
    <circle cx="836.8" cy="31.3" r="0.80" fill="#FFFFFF" opacity="0.63"/>
    <circle cx="776.3" cy="178.2" r="0.96" fill="#FFFFFF" opacity="0.24"/>
    <circle cx="1194.7" cy="29.1" r="0.87" fill="#FFFFFF" opacity="0.55"/>
    <circle cx="52.0" cy="694.2" r="0.56" fill="#FFFFFF" opacity="0.47"/>
    <circle cx="96.5" cy="409.4" r="0.65" fill="#FFFFFF" opacity="0.38"/>
    <circle cx="1461.6" cy="409.5" r="1.30" fill="#FFFFFF" opacity="0.73"/>
    <circle cx="484.4" cy="88.5" r="0.42" fill="#FFFFFF" opacity="0.53"/>
    <circle cx="1919.8" cy="378.0" r="1.18" fill="#FFFFFF" opacity="0.70"/>
    <circle cx="1251.4" cy="814.6" r="1.54" fill="#FFFFFF" opacity="0.29"/>
    <circle cx="39.1" cy="164.6" r="0.55" fill="#FFFFFF" opacity="0.62"/>
    <circle cx="1082.8" cy="235.4" r="1.24" fill="#FFFFFF" opacity="0.69"/>
    <circle cx="322.2" cy="655.8" r="1.30" fill="#FFFFFF" opacity="0.23"/>
    <circle cx="1573.1" cy="1041.9" r="0.53" fill="#FFFFFF" opacity="0.17"/>
    <circle cx="599.0" cy="731.5" r="1.55" fill="#FFFFFF" opacity="0.43"/>
    <circle cx="1372.8" cy="82.1" r="1.23" fill="#FFFFFF" opacity="0.59"/>
    <circle cx="195.7" cy="834.3" r="1.42" fill="#FFFFFF" opacity="0.57"/>
    <circle cx="232.4" cy="1062.6" r="1.34" fill="#FFFFFF" opacity="0.39"/>
    <circle cx="822.5" cy="400.2" r="1.01" fill="#FFFFFF" opacity="0.39"/>
    <circle cx="1631.2" cy="888.1" r="0.53" fill="#FFFFFF" opacity="0.82"/>
    <circle cx="1220.3" cy="895.0" r="1.25" fill="#FFFFFF" opacity="0.45"/>
    <circle cx="1408.9" cy="1042.7" r="0.72" fill="#FFFFFF" opacity="0.72"/>
    <circle cx="1033.3" cy="522.2" r="0.92" fill="#FFFFFF" opacity="0.66"/>
    <circle cx="515.3" cy="919.9" r="1.40" fill="#FFFFFF" opacity="0.21"/>
    <circle cx="1692.7" cy="263.4" r="0.96" fill="#FFFFFF" opacity="0.58"/>
    <circle cx="727.7" cy="31.0" r="1.42" fill="#FFFFFF" opacity="0.28"/>
    <circle cx="407.3" cy="861.7" r="0.81" fill="#FFFFFF" opacity="0.77"/>
    <circle cx="1346.3" cy="298.4" r="0.41" fill="#FFFFFF" opacity="0.81"/>
    <circle cx="164.4" cy="777.7" r="0.99" fill="#FFFFFF" opacity="0.68"/>
    <circle cx="1326.0" cy="697.6" r="0.99" fill="#FFFFFF" opacity="0.71"/>
    <circle cx="178.7" cy="239.3" r="1.23" fill="#FFFFFF" opacity="0.36"/>
    <circle cx="1116.6" cy="511.1" r="1.04" fill="#FFFFFF" opacity="0.45"/>
    <circle cx="1432.2" cy="357.3" r="1.24" fill="#FFFFFF" opacity="0.34"/>
    <circle cx="482.7" cy="130.3" r="0.63" fill="#FFFFFF" opacity="0.23"/>
    <circle cx="1028.9" cy="823.2" r="0.62" fill="#FFFFFF" opacity="0.30"/>
    <circle cx="929.7" cy="782.6" r="1.57" fill="#FFFFFF" opacity="0.52"/>
    <circle cx="543.4" cy="108.6" r="0.63" fill="#FFFFFF" opacity="0.31"/>
    <circle cx="344.5" cy="15.3" r="1.04" fill="#FFFFFF" opacity="0.34"/>
    <circle cx="1870.6" cy="597.6" r="1.24" fill="#FFFFFF" opacity="0.24"/>
    <circle cx="1667.4" cy="530.1" r="1.45" fill="#FFFFFF" opacity="0.55"/>
    <circle cx="901.2" cy="475.7" r="0.62" fill="#FFFFFF" opacity="0.19"/>
    <circle cx="1806.8" cy="515.9" r="1.39" fill="#FFFFFF" opacity="0.43"/>
    <circle cx="142.2" cy="679.8" r="0.46" fill="#FFFFFF" opacity="0.25"/>
    <circle cx="1080.7" cy="328.1" r="1.59" fill="#FFFFFF" opacity="0.23"/>
    <circle cx="1467.7" cy="654.8" r="1.35" fill="#FFFFFF" opacity="0.31"/>
    <circle cx="1003.3" cy="486.6" r="0.93" fill="#FFFFFF" opacity="0.75"/>
    <circle cx="1900.9" cy="329.8" r="1.15" fill="#FFFFFF" opacity="0.58"/>
    <circle cx="1421.0" cy="1023.4" r="0.65" fill="#FFFFFF" opacity="0.30"/>
    <circle cx="1268.0" cy="169.6" r="0.61" fill="#FFFFFF" opacity="0.20"/>
    <circle cx="5.1" cy="486.5" r="1.11" fill="#FFFFFF" opacity="0.35"/>
    <circle cx="444.4" cy="763.5" r="1.24" fill="#FFFFFF" opacity="0.47"/>
    <circle cx="1319.8" cy="997.8" r="1.35" fill="#FFFFFF" opacity="0.59"/>
    <circle cx="1269.5" cy="1008.4" r="0.91" fill="#FFFFFF" opacity="0.53"/>
    <circle cx="1243.5" cy="981.1" r="1.39" fill="#FFFFFF" opacity="0.20"/>
    <circle cx="318.6" cy="332.2" r="1.30" fill="#FFFFFF" opacity="0.55"/>
    <circle cx="554.1" cy="134.3" r="1.23" fill="#FFFFFF" opacity="0.64"/>
    <circle cx="1809.9" cy="540.5" r="0.99" fill="#FFFFFF" opacity="0.21"/>
    <circle cx="76.5" cy="466.6" r="0.79" fill="#FFFFFF" opacity="0.33"/>
    <circle cx="175.3" cy="1038.9" r="1.40" fill="#FFFFFF" opacity="0.55"/>
    <circle cx="1825.5" cy="1079.5" r="1.21" fill="#FFFFFF" opacity="0.34"/>
    <circle cx="77.2" cy="816.8" r="0.96" fill="#FFFFFF" opacity="0.61"/>
    <circle cx="1758.9" cy="196.0" r="1.10" fill="#FFFFFF" opacity="0.59"/>
    <circle cx="944.1" cy="98.5" r="0.82" fill="#FFFFFF" opacity="0.38"/>
    <circle cx="1286.7" cy="926.4" r="0.80" fill="#FFFFFF" opacity="0.64"/>
    <circle cx="553.4" cy="1020.8" r="1.38" fill="#FFFFFF" opacity="0.54"/>
    <circle cx="873.3" cy="339.7" r="0.79" fill="#FFFFFF" opacity="0.83"/>
    <circle cx="776.0" cy="555.8" r="1.59" fill="#FFFFFF" opacity="0.61"/>
    <circle cx="1041.8" cy="446.3" r="0.63" fill="#FFFFFF" opacity="0.40"/>
    <circle cx="1452.4" cy="675.4" r="1.31" fill="#FFFFFF" opacity="0.29"/>
    <circle cx="1054.5" cy="1001.9" r="0.93" fill="#FFFFFF" opacity="0.64"/>
    <circle cx="233.1" cy="1051.0" r="1.13" fill="#FFFFFF" opacity="0.32"/>
    <circle cx="304.1" cy="594.9" r="1.06" fill="#FFFFFF" opacity="0.22"/>
    <circle cx="1905.1" cy="986.0" r="0.95" fill="#FFFFFF" opacity="0.23"/>
    <circle cx="1597.7" cy="538.2" r="1.26" fill="#FFFFFF" opacity="0.51"/>
    <circle cx="525.0" cy="901.5" r="1.58" fill="#FFFFFF" opacity="0.32"/>
    <circle cx="1058.4" cy="414.3" r="1.51" fill="#FFFFFF" opacity="0.51"/>
    <circle cx="1688.3" cy="933.1" r="0.73" fill="#FFFFFF" opacity="0.70"/>
    <circle cx="796.7" cy="1009.0" r="1.01" fill="#FFFFFF" opacity="0.72"/>
    <circle cx="543.1" cy="322.4" r="1.10" fill="#FFFFFF" opacity="0.85"/>
    <circle cx="940.1" cy="160.5" r="1.05" fill="#FFFFFF" opacity="0.39"/>
    <circle cx="1059.7" cy="586.9" r="0.95" fill="#FFFFFF" opacity="0.38"/>
    <circle cx="362.2" cy="753.3" r="1.09" fill="#FFFFFF" opacity="0.31"/>
    <circle cx="1489.0" cy="47.1" r="1.29" fill="#FFFFFF" opacity="0.64"/>
    <circle cx="1557.9" cy="417.0" r="1.20" fill="#FFFFFF" opacity="0.72"/>
    <circle cx="1883.2" cy="535.0" r="0.44" fill="#FFFFFF" opacity="0.50"/>
    <circle cx="1133.1" cy="939.3" r="1.45" fill="#FFFFFF" opacity="0.46"/>
    <circle cx="1009.8" cy="493.5" r="1.27" fill="#FFFFFF" opacity="0.44"/>
    <circle cx="1257.2" cy="166.7" r="0.96" fill="#FFFFFF" opacity="0.83"/>
    <circle cx="650.0" cy="748.1" r="1.18" fill="#FFFFFF" opacity="0.75"/>
    <circle cx="1636.5" cy="928.1" r="0.86" fill="#FFFFFF" opacity="0.37"/>
    <circle cx="1379.9" cy="820.2" r="1.45" fill="#FFFFFF" opacity="0.18"/>
    <circle cx="131.4" cy="681.7" r="1.51" fill="#FFFFFF" opacity="0.85"/>
    <circle cx="1433.8" cy="468.7" r="0.52" fill="#FFFFFF" opacity="0.59"/>
    <circle cx="1675.4" cy="479.2" r="1.23" fill="#FFFFFF" opacity="0.78"/>
    <circle cx="88.3" cy="859.8" r="0.75" fill="#FFFFFF" opacity="0.41"/>
    <circle cx="279.5" cy="573.7" r="1.08" fill="#FFFFFF" opacity="0.70"/>
    <circle cx="326.4" cy="85.3" r="1.45" fill="#FFFFFF" opacity="0.58"/>
    <circle cx="462.4" cy="985.9" r="0.57" fill="#FFFFFF" opacity="0.47"/>
    <circle cx="487.6" cy="275.8" r="0.41" fill="#FFFFFF" opacity="0.71"/>
    <circle cx="1730.3" cy="731.8" r="0.59" fill="#FFFFFF" opacity="0.46"/>
    <circle cx="663.5" cy="634.6" r="1.17" fill="#FFFFFF" opacity="0.45"/>
    <circle cx="480.2" cy="912.9" r="0.64" fill="#FFFFFF" opacity="0.42"/>
    <circle cx="927.8" cy="256.2" r="1.09" fill="#FFFFFF" opacity="0.55"/>
    <circle cx="1906.0" cy="318.8" r="1.57" fill="#FFFFFF" opacity="0.61"/>
    <circle cx="527.0" cy="611.2" r="1.22" fill="#FFFFFF" opacity="0.67"/>
    <circle cx="94.2" cy="654.9" r="1.00" fill="#FFFFFF" opacity="0.78"/>
    <circle cx="549.5" cy="862.8" r="1.13" fill="#FFFFFF" opacity="0.40"/>
    <circle cx="1222.3" cy="670.6" r="1.21" fill="#FFFFFF" opacity="0.65"/>
    <circle cx="1265.6" cy="905.4" r="1.15" fill="#FFFFFF" opacity="0.78"/>
    <circle cx="1241.0" cy="333.6" r="0.93" fill="#FFFFFF" opacity="0.56"/>
    <circle cx="1406.1" cy="97.3" r="0.75" fill="#FFFFFF" opacity="0.67"/>
    <circle cx="337.2" cy="142.7" r="1.05" fill="#FFFFFF" opacity="0.83"/>
    <circle cx="1019.2" cy="986.6" r="1.40" fill="#FFFFFF" opacity="0.33"/>
    <circle cx="1583.4" cy="520.4" r="1.37" fill="#FFFFFF" opacity="0.67"/>
    <circle cx="650.3" cy="124.4" r="1.56" fill="#FFFFFF" opacity="0.25"/>
    <circle cx="1855.7" cy="929.0" r="1.27" fill="#FFFFFF" opacity="0.84"/>
    <circle cx="1857.2" cy="869.0" r="0.84" fill="#FFFFFF" opacity="0.70"/>
    <circle cx="26.7" cy="579.5" r="0.95" fill="#FFFFFF" opacity="0.62"/>
    <circle cx="1290.9" cy="631.3" r="1.39" fill="#FFFFFF" opacity="0.81"/>
    <circle cx="208.0" cy="252.5" r="0.43" fill="#FFFFFF" opacity="0.77"/>
    <circle cx="1077.9" cy="988.5" r="0.67" fill="#FFFFFF" opacity="0.19"/>
    <circle cx="1581.8" cy="982.1" r="0.76" fill="#FFFFFF" opacity="0.44"/>
    <circle cx="268.4" cy="1022.0" r="0.77" fill="#FFFFFF" opacity="0.49"/>
    <circle cx="186.6" cy="958.2" r="0.56" fill="#FFFFFF" opacity="0.47"/>
    <circle cx="1287.3" cy="802.6" r="1.54" fill="#FFFFFF" opacity="0.44"/>
    <circle cx="1425.2" cy="166.9" r="0.90" fill="#FFFFFF" opacity="0.22"/>
    <circle cx="939.5" cy="440.8" r="1.54" fill="#FFFFFF" opacity="0.17"/>
    <circle cx="711.4" cy="478.9" r="1.54" fill="#FFFFFF" opacity="0.75"/>
    <circle cx="190.8" cy="740.5" r="1.05" fill="#FFFFFF" opacity="0.83"/>
    <circle cx="688.7" cy="430.0" r="0.63" fill="#FFFFFF" opacity="0.24"/>
    <circle cx="1628.2" cy="491.1" r="1.20" fill="#FFFFFF" opacity="0.60"/>
    <circle cx="1146.5" cy="23.1" r="1.34" fill="#FFFFFF" opacity="0.32"/>
    <circle cx="241.8" cy="609.7" r="0.48" fill="#FFFFFF" opacity="0.69"/>
    <circle cx="397.7" cy="233.2" r="1.44" fill="#FFFFFF" opacity="0.38"/>
    <circle cx="283.3" cy="972.6" r="0.40" fill="#FFFFFF" opacity="0.75"/>
    <circle cx="277.8" cy="140.4" r="0.70" fill="#FFFFFF" opacity="0.27"/>
    <circle cx="1269.2" cy="27.8" r="0.42" fill="#FFFFFF" opacity="0.70"/>
    <circle cx="456.8" cy="349.7" r="0.61" fill="#FFFFFF" opacity="0.19"/>
  </g>
  <g>
    <path d="M -80 849.4 C 658.3 573.4, 1578.8 854.5, 2000 544.9" stroke="#B8925A" stroke-width="1.06" fill="none" opacity="0.11" stroke-linecap="round"/>
    <path d="M -80 1110.1 C 883.4 -44.5, 1406.4 902.5, 2000 -22.1" stroke="#E4E1FA" stroke-width="1.00" fill="none" opacity="0.31" stroke-linecap="round"/>
    <path d="M -80 513.1 C 666.4 414.1, 1667.3 778.2, 2000 678.6" stroke="#E4E1FA" stroke-width="0.58" fill="none" opacity="0.10" stroke-linecap="round"/>
    <path d="M -80 -15.9 C 699.9 252.0, 1274.5 710.3, 2000 480.8" stroke="#E4E1FA" stroke-width="1.59" fill="none" opacity="0.21" stroke-linecap="round"/>
    <path d="M -80 674.9 C 875.2 26.9, 1493.4 798.3, 2000 175.2" stroke="#E4E1FA" stroke-width="1.35" fill="none" opacity="0.25" stroke-linecap="round"/>
    <path d="M -80 478.0 C 645.2 192.5, 1335.5 333.8, 2000 751.3" stroke="#B8925A" stroke-width="0.60" fill="none" opacity="0.18" stroke-linecap="round"/>
    <path d="M -80 379.1 C 422.7 95.4, 1615.0 1081.4, 2000 845.7" stroke="#E4E1FA" stroke-width="0.60" fill="none" opacity="0.10" stroke-linecap="round"/>
    <path d="M -80 939.1 C 707.5 612.2, 1277.5 650.7, 2000 751.6" stroke="#E4E1FA" stroke-width="0.63" fill="none" opacity="0.16" stroke-linecap="round"/>
    <path d="M -80 860.4 C 941.8 1011.2, 1459.5 823.0, 2000 172.3" stroke="#E4E1FA" stroke-width="0.89" fill="none" opacity="0.22" stroke-linecap="round"/>
    <path d="M -80 740.6 C 870.9 187.0, 1303.0 38.5, 2000 933.2" stroke="#E4E1FA" stroke-width="1.34" fill="none" opacity="0.22" stroke-linecap="round"/>
    <path d="M -80 981.8 C 737.4 1147.4, 1487.9 947.6, 2000 961.7" stroke="#B8925A" stroke-width="0.53" fill="none" opacity="0.30" stroke-linecap="round"/>
    <path d="M -80 242.3 C 562.0 130.9, 1284.4 799.5, 2000 624.9" stroke="#E4E1FA" stroke-width="0.51" fill="none" opacity="0.29" stroke-linecap="round"/>
    <path d="M -80 413.0 C 401.7 81.6, 1557.4 710.5, 2000 336.3" stroke="#E4E1FA" stroke-width="0.74" fill="none" opacity="0.18" stroke-linecap="round"/>
    <path d="M -80 373.7 C 710.9 823.6, 1113.1 894.3, 2000 690.8" stroke="#E4E1FA" stroke-width="0.56" fill="none" opacity="0.12" stroke-linecap="round"/>
    <path d="M -80 762.7 C 663.7 248.3, 1353.1 747.3, 2000 45.7" stroke="#E4E1FA" stroke-width="0.80" fill="none" opacity="0.26" stroke-linecap="round"/>
    <path d="M -80 450.3 C 664.3 262.6, 1504.3 768.5, 2000 667.1" stroke="#B8925A" stroke-width="0.55" fill="none" opacity="0.17" stroke-linecap="round"/>
    <path d="M -80 -90.2 C 463.0 285.8, 1227.7 170.4, 2000 856.2" stroke="#E4E1FA" stroke-width="0.86" fill="none" opacity="0.08" stroke-linecap="round"/>
    <path d="M -80 124.9 C 672.2 386.7, 1616.0 800.7, 2000 1003.1" stroke="#E4E1FA" stroke-width="1.39" fill="none" opacity="0.10" stroke-linecap="round"/>
    <path d="M -80 -45.9 C 880.6 -76.0, 1442.9 1079.1, 2000 434.6" stroke="#E4E1FA" stroke-width="1.13" fill="none" opacity="0.25" stroke-linecap="round"/>
    <path d="M -80 47.4 C 845.6 -73.3, 1471.4 315.7, 2000 12.8" stroke="#E4E1FA" stroke-width="1.42" fill="none" opacity="0.30" stroke-linecap="round"/>
    <path d="M -80 980.9 C 685.8 211.4, 1322.0 653.8, 2000 326.3" stroke="#B8925A" stroke-width="0.84" fill="none" opacity="0.16" stroke-linecap="round"/>
    <path d="M -80 115.2 C 677.7 553.4, 1664.8 46.0, 2000 948.3" stroke="#E4E1FA" stroke-width="0.88" fill="none" opacity="0.25" stroke-linecap="round"/>
    <path d="M -80 943.2 C 497.6 202.4, 1460.8 87.4, 2000 126.7" stroke="#E4E1FA" stroke-width="1.34" fill="none" opacity="0.24" stroke-linecap="round"/>
    <path d="M -80 889.2 C 821.7 532.5, 1357.7 865.7, 2000 713.2" stroke="#E4E1FA" stroke-width="1.52" fill="none" opacity="0.22" stroke-linecap="round"/>
    <path d="M -80 699.4 C 471.0 1006.2, 1101.9 702.8, 2000 251.6" stroke="#E4E1FA" stroke-width="0.99" fill="none" opacity="0.15" stroke-linecap="round"/>
    <path d="M -80 -28.1 C 644.3 549.4, 1094.2 297.3, 2000 1006.2" stroke="#B8925A" stroke-width="1.41" fill="none" opacity="0.10" stroke-linecap="round"/>
  </g>
</svg>
